<?xml version="1.0" encoding="utf-8"?>
<!-- Generator: Adobe Illustrator 28.0.0, SVG Export Plug-In . SVG Version: 6.00 Build 0)  -->
<svg version="1.1" id="Layer_1" xmlns="http://www.w3.org/2000/svg" xmlns:xlink="http://www.w3.org/1999/xlink" x="0px" y="0px"
	 viewBox="0 0 120 120" style="enable-background:new 0 0 120 120;" xml:space="preserve">
<style type="text/css">
	.st0{fill:#FFFFFF;}
</style>
<g>
	<path class="st0" d="M29.7,23.4c2.2,0.1,3.8,1.2,5.3,2.6c7.7,7.7,15.4,15.4,23,23.1c2,2,2,2,4,0c7.7-7.7,15.4-15.4,23-23.1
		c1.8-1.8,3.9-3.1,6.6-2.4c4.6,1.1,6.4,6.1,3.6,9.9c-0.5,0.7-1.2,1.3-1.8,2c-7.6,7.6-15.2,15.3-22.9,22.9c-1.3,1.3-1.3,2.1,0,3.3
		c7.7,7.6,15.4,15.3,23.1,23c3.5,3.5,3.9,7.2,1.1,10c-2.8,2.9-6.5,2.5-10-1c-7.7-7.7-15.4-15.3-23-23.1c-1.4-1.4-2.2-1.3-3.5,0
		C50.5,78.5,42.7,86.2,34.9,94c-1.8,1.8-3.9,3.1-6.6,2.4c-4.6-1.1-6.4-6.1-3.6-9.9c0.5-0.7,1.2-1.3,1.8-2
		c7.6-7.6,15.2-15.3,22.9-22.9c1.3-1.3,1.3-2.1,0-3.3c-7.9-7.8-15.7-15.6-23.5-23.4c-2-2-3.2-4.3-2.2-7.2
		C24.6,25.2,27,23.4,29.7,23.4z"/>
</g>
</svg>
