<?xml version="1.0" encoding="utf-8"?>
<!-- Generator: Adobe Illustrator 25.2.1, SVG Export Plug-In . SVG Version: 6.00 Build 0)  -->
<svg version="1.1" id="Layer_1" xmlns="http://www.w3.org/2000/svg" xmlns:xlink="http://www.w3.org/1999/xlink" x="0px" y="0px"
	 viewBox="0 0 2000 2000" style="enable-background:new 0 0 2000 2000;" xml:space="preserve">
<style type="text/css">
	.st0{fill:url(#SVGID_1_);}
	.st1{fill:#1D1D1B;}
	.st2{fill:#FFFFFF;}
</style>
<linearGradient id="SVGID_1_" gradientUnits="userSpaceOnUse" x1="151.9899" y1="1490.6047" x2="1850.972" y2="509.6969">
	<stop  offset="0" style="stop-color:#EF236B"/>
	<stop  offset="1" style="stop-color:#022BD1"/>
</linearGradient>
<circle class="st0" cx="1001.5" cy="1000.2" r="980.7"/>
<g>
	<g>
		<path class="st1" d="M702.9,1463.5c-4.1,2.5-8.7,4.5-13.8,5.9c-5.2,1.4-10.6,2.1-16.4,2.1c-6.9,0-13.4-1-19.4-3
			c-6-2-11.2-4.8-15.6-8.4c-4.5-3.6-8-7.8-10.5-12.6c-2.5-4.8-3.8-10-3.8-15.5c0-6.9,2-13.3,5.9-19.1c3.9-5.8,9.2-10.4,15.8-13.9
			c-2.2-3-3.9-6.3-5.1-9.8c-1.2-3.5-1.8-7.3-1.8-11.4c0-5,1-9.7,2.9-14.2c1.9-4.5,4.5-8.3,7.7-11.6c3.2-3.2,7.1-5.8,11.5-7.7
			c4.4-1.9,9.1-2.9,14.2-2.9c5,0,9.7,1,14.2,2.9c4.5,1.9,8.3,4.5,11.6,7.7c3.3,3.2,5.9,7.1,7.8,11.6c1.9,4.5,2.9,9.2,2.9,14.2
			c0,6.6-1.6,12.6-4.7,17.9c-3.1,5.3-7.3,9.6-12.5,12.7l10.6,12.7l16.7-14.6l20.2,22.8l-17,14.9l22.6,27.6l-36.5-0.2L702.9,1463.5z
			 M655.1,1435.2c1.3,2.5,3.1,4.4,5.6,5.6c2.4,1.2,6.3,1.7,11.5,1.5c1.9-0.1,3.6-0.4,5.4-0.9c1.7-0.5,3.2-0.9,4.5-1.4l-16.2-18.2
			c-0.7,0.5-1.3,0.8-1.7,1.1c-0.5,0.3-1.3,0.7-2.4,1.3c-2.9,2-5,3.9-6.2,5.7C654.3,1431.8,654.2,1433.6,655.1,1435.2z M674.4,1371.4
			c-1.7,0-3.2,0.6-4.4,1.8c-1.2,1.2-1.8,2.7-1.8,4.4c0,1.6,0.6,3,1.8,4.3c1.2,1.2,2.7,1.8,4.4,1.8c1.7,0,3.2-0.6,4.4-1.8
			c1.2-1.2,1.8-2.6,1.8-4.3c0-1.7-0.6-3.2-1.8-4.4C677.6,1372,676.1,1371.4,674.4,1371.4z"/>
		<path class="st1" d="M913.6,1341.4v130.3h-29.2v-49.9h-48.6v49.9h-29.2v-130.3h29.2v51.4h48.6v-51.4H913.6z"/>
		<path class="st1" d="M963.3,1471.8H932l51.4-130.8h18.9l47.6,130.8h-31.1l-7.8-22.1h-39.4L963.3,1471.8z M992.3,1397.8l-9.2,23.1
			h17.5L992.3,1397.8z"/>
		<path class="st1" d="M1145.5,1370.6h-32.3v101.1h-29v-101.1h-32.3v-29h93.6V1370.6z"/>
		<path class="st1" d="M1219.5,1472c-9,0-17.5-1.7-25.5-5.1c-7.9-3.4-14.9-8.1-20.8-14s-10.6-12.8-14-20.8
			c-3.4-7.9-5.1-16.4-5.1-25.3c0-9,1.7-17.5,5.1-25.5c3.4-7.9,8.1-14.9,14-20.8s12.8-10.6,20.8-14c7.9-3.4,16.4-5.1,25.5-5.1
			c9.1,0,17.9,1.9,26.3,5.6c8.4,3.7,15.7,9,22,16l-21,18.9c-3.6-3.9-7.7-6.9-12.4-9c-4.7-2.1-9.6-3.1-14.9-3.1
			c-5.1,0-9.9,1-14.4,2.9c-4.5,1.9-8.5,4.5-11.8,7.9c-3.4,3.4-6,7.3-7.9,11.8c-1.9,4.5-2.9,9.3-2.9,14.4c0,5.1,1,9.9,2.9,14.3
			c1.9,4.5,4.5,8.4,7.9,11.7c3.4,3.4,7.3,6,11.8,7.9c4.5,1.9,9.3,2.9,14.4,2.9c5.2,0,10.2-1,14.9-3.1c4.7-2.1,8.8-5.1,12.4-9
			l21,19.1c-6.3,6.9-13.6,12.2-22,15.9C1237.4,1470.2,1228.7,1472,1219.5,1472z"/>
		<path class="st1" d="M1403.3,1341.4v130.3h-29.2v-49.9h-48.6v49.9h-29.2v-130.3h29.2v51.4h48.6v-51.4H1403.3z"/>
	</g>
	<rect x="257" y="1236.1" class="st1" width="179.4" height="13.5"/>
	<rect x="645.8" y="1236.1" class="st1" width="618.9" height="13.5"/>
	<rect x="1494.8" y="1241.6" class="st1" width="257" height="13.5"/>
	<g>
		<path class="st1" d="M996.6,867.5c-0.1,0-0.1,0-0.2,0c-12.5,0-29.9,13.5-53.1,41.1c-17.7,21.1-33.7,44.6-40.2,55.3l-3.8,6.4
			l0.4-39.8c1.7-22.2,1.6-30.4-2.4-34.7c-1.7-1.9-4.1-2.8-7.1-2.9l-4.7,0l-0.2,0c-11.8,0.7-15.7,16.6-17.6,28.5
			c-2.4,15.1-3.5,36.9-3.2,68.2c-2.5,3.7-5.3,7.9-8.5,12.4c-26.3,38.4-39.4,55.3-49.4,56.9c-6.3,1-10.8-3.8-16.9-13.1
			c-11.6-14.8-18.4-34.1-30-78.6c-9.1-33.8-14.5-44.9-24.1-47.1c-2-0.6-3.8-0.3-5.6,0c-13.6,2.1-25.8,24.5-49,82.8
			c-6.6,16.8-11.8,30.6-12.7,30.7c-1.7,1.2-2.1-1.5-1.9-6.2c0.6-49.2,7.6-86.4,22.1-111.9c7.3-12.3,14.5-19.9,19.9-20.7
			c3.6-0.6,6.8,1.7,9.3,5.9c2.5,4.2,4.8,6.7,7.5,6.2c1.8-0.3,4.1-3.4,5-9.1c0.7-7.5,0.4-9.3-3.2-14.3c-5-8.5-13-11.8-22-10.4
			c-13.6,2.1-29,15.7-41.2,38c-17.7,34.3-27.9,98.9-20.2,135.7c3.3,15.2,8.2,22.8,17.7,24.1c2,0.6,4.7,0.2,6.5-0.1
			c10.8-1.7,18.8-15.9,34.1-53.6c6.6-16.8,15.2-38.5,18.6-46.5l6.1-13.9l7.7,31.2c14.7,63.5,31.7,95,57.2,104
			c5.9,1.9,9.6,2.2,15,1.3c1.8-0.3,3.6-0.6,6.3-1c14.3-3.2,26-11.5,38.9-29.3c4.2-5.7,8.8-21.3,13.2-38.8c0.8,29.6,3.3,39.3,12,44.3
			c3.4,2.3,6.9,3.4,10.5,3.5c0,0,0.1,0,0.1,0c11.3,0,13.7-14.6,15.5-32.2l0-0.1c2-27.8,11-50.2,33-82.6
			c21.1-30.1,50.8-63.4,56.7-65.4l0.5-0.1l0.4-0.2c0.4-0.2,1.8-0.4,2.8-0.5c1.4-0.2,3.1-0.4,4.6-0.9c6.1-1.2,8.8-4.5,8.9-10.6
			C1010.1,872.3,1004.7,867.6,996.6,867.5z"/>
		<g>
			<g>
				<path class="st1" d="M923.1,642.6c1,6.2-0.9,10.6-5.8,13.1c-1.1,0.2-7.3,1.5-18.5,3.8c-11.2,2.4-26.4,5.5-45.5,9.4
					c-19.1,3.9-36.8,7.4-53.1,10.6l-111.6,20.3l-7.8,16.9c-5,12.4-15.9,45.1-32.7,98.3c-16.8,53.1-33.6,109-50.5,167.6
					c-16.8,58.6-28.3,99.7-34.4,123.3c-9,38.5-16.1,77.2-21.2,116c-5.2,38.8-8.6,66.3-10.4,82.6c-1.8,16.2-4.9,24.7-9.5,25.4
					c-6.8,1.1-10.8,1.4-12,1c-12.5-9-10.6-61.3,5.7-156.6c4.2-25,14.3-68.8,30.5-131.4c16.2-62.6,30.9-114.6,44-156.2
					c3.9-12.2,6.6-21.3,8.3-27.4c1.7-6.1,1.9-9,0.8-8.8c-2.3,0.4-13.7,16.1-34.3,47.2c-11.3,16.9-26.8,38.6-46.7,65.2
					s-38.6,51.8-56.3,75.5c-17.7,23.7-27.3,36.5-28.7,38.5l4.7,29.7c6.3,39.6-2,66.4-24.7,80.5c-15.8,10-30.3,10-43.5-0.1
					c-6-4.9-9.7-11.5-11-20c-1-6.2,1.3-17.3,6.9-33.3c5.6-16,12-30.6,19.2-43.9c5.5-9,8.5-16,8.8-21c0.4-5-1-17.4-4.1-37.2
					c-3.4-21.5-4.8-39.5-4.2-54.1c2.5-17.2,9.6-29.9,21.3-38.2c11.7-8.2,22.6-8.5,32.5-0.8c10.6,8.2,13.3,17.9,8.1,29.2
					c-3.9,8.2-10,10.3-18.1,6.4c-8.6-2.7-13,0.6-13.2,9.9c0.1,4.1,0.9,12.9,2.5,26.6c0.6,10.9,1.1,19.8,1.6,26.7
					c2-2.1,5.8-6.6,11.3-13.5c5.6-7,10.9-13.8,15.9-20.4c5-6.6,11.5-15,19.5-25.3c7.9-10.2,15.6-20.4,23-30.6
					c7.4-10.2,15.7-21.8,24.9-34.8s18.1-26.1,26.5-39c21.3-30.6,43.5-65,66.7-103.2c23.2-38.2,34.6-58.7,34.2-61.5
					c-0.1-0.6-2.6-0.6-7.4-0.1c-4.8,0.5-13.3,2-25.4,4.4c-12.1,2.5-28.1,5.9-48,10.2c-19.9,4.3-44.7,10-74.3,17
					c-29.7,6.4-48.8,10.3-57.3,11.7c-8.5,1.3-14.1,0.8-16.8-1.7c-4.6-3.3-6.7-7.8-6.5-13.3c0.3-5.6,2.8-9.6,7.7-12.1
					c3.8-1.8,11.1-4.1,21.9-7c10.9-2.9,23.6-6.1,38.1-9.5c14.5-3.5,30.1-6.9,46.6-10.4c16.6-3.5,32.7-6.9,48.4-10.3
					c15.7-3.4,30.2-6.4,43.4-9s27.7-5.5,43.4-8.6c4.7-10.6,12.4-29.5,23.2-56.7c10.8-27.2,18.7-46.9,23.7-59
					c5-12.1,12.2-27.3,21.5-45.6s18.6-34.3,28.1-47.9c8.4-12.9,15.7-20.9,21.9-23.9c6.2-3,12.7-1.6,19.4,4.3c3.8,2.3,6,4.8,6.4,7.7
					c0.4,2.8-0.4,8.7-2.4,17.8c-2.9,15-11.7,38-26.5,69c-14.8,31.1-28.8,58.8-42.1,83.2c-13.2,24.4-19.7,37.5-19.5,39.2
					c0.3,2.3,32.2-1.6,95.6-11.7l0.8-0.1c56.1-8.3,89.4-12.6,99.8-12.8C916.4,633.4,922.1,636.4,923.1,642.6z M395.6,1135
					c-5.8,14.8-6.9,22.6-3.3,23.2c4.2,0.5,8-4.5,11.6-14.9c2.6-9.1,2.8-15.2,0.6-18.4C403.8,1121,400.8,1124.3,395.6,1135z"/>
				<path class="st1" d="M1070.8,927.3c70.7-58.8,117.1-92.2,139-100.3c14.8-5.2,21.2-1.3,19.3,11.7c-0.8,2.4-7.5,8.7-20.1,18.8
					c-12.6,10.1-29.4,23.4-50.3,39.7c-20.9,16.4-37.5,29.9-49.7,40.5l-31.4,26.7l3.9,24.6c3.9,24.3,0.3,43.1-10.6,56.5
					c-10.9,13.3-26.2,16.9-45.7,10.7c-15.3-5.1-25-13.2-29.1-24.1c-4.1-11-1.9-22.9,6.5-35.8c8.3-13.5,20.1-27,35.4-40.4
					c-1.2-7.9-2.6-16.7-4.2-26.3c-1.5-9.6-2.6-16.3-3.2-19.9c-0.6-3.7-1.3-8.2-2.1-13.6c-0.8-5.4-1.1-9.4-0.6-12.1
					c0.4-2.7,1-5.7,1.6-8.9c0.6-3.3,1.5-6.8,2.7-10.4c4.4-8.8,11-15.8,19.7-21c8.7-5.2,17.6-6.7,26.7-4.7c10.8,2.3,16,7.8,15.6,16.2
					c-0.4,8.5-6.3,13.6-17.6,15.4c-7.4,1.2-11.8,4.3-13.3,9.5c-1.5,5.2-0.5,15,2.9,29.6L1070.8,927.3z M1032.3,1024.7
					c6.9,3.5,12,2.7,15.3-2.4c3.2-5.2,4.4-10.8,3.4-17.1c-1-6.2-1.6-9.9-1.7-11c-0.4-2.8-5,1.1-13.8,11.8c-0.4,1.2-1.3,2.8-2.7,4.8
					c-3.3,4.6-5.1,7.5-5.2,8.6C1027.4,1020.6,1029,1022.3,1032.3,1024.7z"/>
				<path class="st1" d="M1437.2,796.3c8.3,12-0.5,30.7-26.4,55.9c-25.9,25.3-57.8,46.1-95.8,62.6c-13.1,5-24.2,7.6-33.1,7.8
					c-8.9,0.2-17.4-2.8-25.4-9l-10.9-8.7l-8.3,13.5c-4.2,6.5-9.6,15.3-16.3,26.5c-6.6,11.2-12.3,20.5-16.9,27.9
					c-4.6,7.4-9.4,14.8-14.3,22.3c-4.9,7.4-9.3,12.8-13.1,16c-3.8,3.2-7,4.2-9.6,2.8c-6.4-4.2-7.6-15.3-3.5-33.4
					c4.1-18,18.2-68.1,42.3-150.2c23.3-79.7,43.4-149,60.2-207.9c45.1-158.5,70.2-241.6,75.3-249.4c7.5-11,15.6-12.9,24.3-5.6
					c0.1,0.6,0.7,1,2,1.4c3.1,1.3-0.4,20.5-10.4,57.8c-10.1,37.3-47.6,167.2-112.7,389.7c-7.9,27.3-14,48.6-18.6,63.8l18.9-29.1
					c15.2-21,31.4-38.7,48.5-53.4c17.1-14.6,30.1-21.5,38.9-20.5c12.6,2.6,17.8,9.7,15.5,21c-2.3,11.4-11.1,25-26.6,40.8
					c-28.1,27.6-41.8,44-40.9,49.1c0.3,1.7,2.7,2.2,7.2,1.5c4.5-0.7,10.5-2.4,17.9-5c7.4-2.6,14.5-6.2,21.4-10.8
					c31.9-18.4,58-38.7,78.2-61.1c10.4-11.5,17.4-18.3,21.1-20.3C1429.9,790.3,1433.6,791.6,1437.2,796.3z"/>
				<path class="st1" d="M1778.2,742.2c2.9,3.6,3,8.2,0.4,13.8c-0.9,1.9-6.7,8.2-17.4,18.9c-10.8,10.7-24.1,23.5-40,38.5
					s-31,29.4-45.3,43.3c-14.3,13.9-28.1,26.8-41.3,38.7c-13.2,11.9-20,18.2-20.5,18.9c-3,2.8-10.4,18.5-22.1,47
					c-21.3,52.1-47.2,101.5-77.4,148.4c-30.3,46.8-58.8,81.1-85.5,102.7c-8.2,7.1-17.8,12.1-28.9,15c-11.1,2.9-20.1,3.2-26.8,0.8
					c-6.2-2.5-11.1-8.1-14.8-16.8c-3.7-8.7-5.1-17.7-4.3-27.2c2.4-21.3,11.5-44.7,27.1-70.4c15.7-25.7,34.2-49.9,55.5-72.7
					c21.3-22.8,42.4-44.3,63.3-64.4c20.9-20.1,39.6-37.7,56-52.8c16.5-15.1,26-25.2,28.7-30.2c2.7-8.6,4.8-19.9,6.4-34.1
					c1.5-14.2,2-25.8,1.4-35c-0.6-9.2-2.1-14.2-4.5-14.9c-0.6,0.1-14.4,11.6-41.5,34.4c-25.9,23.2-45,38.9-57.4,46.9
					c-12.4,8-25,13.1-38.1,15.2c-19.8,3.1-34.9-1.6-45.3-14.1c-10.4-12.6-12.6-29.5-6.7-50.7c3.7-13.3,8.9-25.9,15.8-37.7
					c6.8-11.8,12.9-19,18.3-21.6c12-4.8,20.6-2.5,25.9,6.8c5.2,9.3,2.6,17.4-7.9,24.3c-9.5,6.1-16,17-19.6,32.7
					c-3.6,15.7-1.7,24.9,5.7,27.8c12.9,4.3,37-9.6,72.5-41.9c15.3-13.4,27-23.6,35.2-30.4c8.2-6.8,16.1-13,23.6-18.5
					c7.5-5.5,13.4-8.6,17.7-9.3c4.2-0.7,8.1-0.7,11.7-0.1c3.6,0.6,7.6,2.6,12.2,5.9c5.2,3.2,8.5,7.1,10.1,11.5s3,14.3,4.3,29.8
					l3.5,33.4c18.6-18,39.6-37.6,62.9-58.7c32.4-29.5,53.6-47.3,63.3-53.5C1763.9,735.5,1771.9,735.7,1778.2,742.2z M1480.3,1102.6
					c7.5-11.1,17-26.6,28.3-46.7c11.3-20.1,21.1-38,29.3-53.8c8.2-15.8,12-23.9,11.4-24.4c-0.1-0.6-14.3,12.4-42.6,38.9
					c-35,35.1-64,69.4-86.8,102.9s-33.2,57-31,70.6c0.8,5.1,2,7.7,3.4,7.7c1.5,0,5.8-2.5,13.1-7.7c9.8-7.9,22-20.4,36.7-37.6
					C1456.8,1135.4,1469.5,1118.8,1480.3,1102.6z"/>
			</g>
		</g>
	</g>
</g>
<g>
	<g>
		<path class="st2" d="M694.6,1457.7c-4.1,2.5-8.7,4.5-13.8,5.9c-5.2,1.4-10.6,2.1-16.4,2.1c-6.9,0-13.4-1-19.4-3
			c-6-2-11.2-4.8-15.6-8.4c-4.5-3.6-8-7.8-10.5-12.6c-2.5-4.8-3.8-10-3.8-15.5c0-6.9,2-13.3,5.9-19.1c3.9-5.8,9.2-10.4,15.8-13.9
			c-2.2-3-3.9-6.3-5.1-9.8c-1.2-3.5-1.8-7.3-1.8-11.4c0-5,1-9.7,2.9-14.2c1.9-4.5,4.5-8.3,7.7-11.6c3.2-3.2,7.1-5.8,11.5-7.7
			c4.4-1.9,9.1-2.9,14.2-2.9c5,0,9.7,1,14.2,2.9c4.5,1.9,8.3,4.5,11.6,7.7c3.3,3.2,5.9,7.1,7.8,11.6c1.9,4.5,2.9,9.2,2.9,14.2
			c0,6.6-1.6,12.6-4.7,17.9c-3.1,5.3-7.3,9.6-12.5,12.7l10.6,12.7l16.7-14.6l20.2,22.8l-17,14.9l22.6,27.6l-36.5-0.2L694.6,1457.7z
			 M646.8,1429.4c1.3,2.5,3.1,4.4,5.6,5.6c2.4,1.2,6.3,1.7,11.5,1.5c1.9-0.1,3.6-0.4,5.4-0.9c1.7-0.5,3.2-0.9,4.5-1.4l-16.2-18.2
			c-0.7,0.5-1.3,0.8-1.7,1.1c-0.5,0.3-1.3,0.7-2.4,1.3c-2.9,2-5,3.9-6.2,5.7C646.1,1426,645.9,1427.8,646.8,1429.4z M666.1,1365.6
			c-1.7,0-3.2,0.6-4.4,1.8c-1.2,1.2-1.8,2.7-1.8,4.4c0,1.6,0.6,3,1.8,4.3c1.2,1.2,2.7,1.8,4.4,1.8c1.7,0,3.2-0.6,4.4-1.8
			c1.2-1.2,1.8-2.6,1.8-4.3c0-1.7-0.6-3.2-1.8-4.4C669.3,1366.2,667.9,1365.6,666.1,1365.6z"/>
		<path class="st2" d="M905.3,1335.6v130.3h-29.2V1416h-48.6v49.9h-29.2v-130.3h29.2v51.4h48.6v-51.4H905.3z"/>
		<path class="st2" d="M955,1466h-31.3l51.4-130.8h18.9l47.6,130.8h-31.1l-7.8-22.1h-39.4L955,1466z M984,1392l-9.2,23.1h17.5
			L984,1392z"/>
		<path class="st2" d="M1137.3,1364.8h-32.3v101.1h-29v-101.1h-32.3v-29h93.6V1364.8z"/>
		<path class="st2" d="M1211.3,1466.2c-9,0-17.5-1.7-25.5-5.1c-7.9-3.4-14.9-8.1-20.8-14s-10.6-12.8-14-20.8
			c-3.4-7.9-5.1-16.4-5.1-25.3c0-9,1.7-17.5,5.1-25.5c3.4-7.9,8.1-14.9,14-20.8s12.8-10.6,20.8-14c7.9-3.4,16.4-5.1,25.5-5.1
			c9.1,0,17.9,1.9,26.3,5.6c8.4,3.7,15.7,9,22,16l-21,18.9c-3.6-3.9-7.7-6.9-12.4-9c-4.7-2.1-9.6-3.1-14.9-3.1
			c-5.1,0-9.9,1-14.4,2.9c-4.5,1.9-8.5,4.5-11.8,7.9c-3.4,3.4-6,7.3-7.9,11.8c-1.9,4.5-2.9,9.3-2.9,14.4c0,5.1,1,9.9,2.9,14.3
			c1.9,4.5,4.5,8.4,7.9,11.7c3.4,3.4,7.3,6,11.8,7.9c4.5,1.9,9.3,2.9,14.4,2.9c5.2,0,10.2-1,14.9-3.1c4.7-2.1,8.8-5.1,12.4-9
			l21,19.1c-6.3,6.9-13.6,12.2-22,15.9C1229.2,1464.4,1220.4,1466.2,1211.3,1466.2z"/>
		<path class="st2" d="M1395.1,1335.6v130.3h-29.2V1416h-48.6v49.9H1288v-130.3h29.2v51.4h48.6v-51.4H1395.1z"/>
	</g>
	<rect x="248.7" y="1230.3" class="st2" width="179.4" height="13.5"/>
	<rect x="637.6" y="1230.3" class="st2" width="618.9" height="13.5"/>
	<rect x="1486.6" y="1235.8" class="st2" width="257" height="13.5"/>
	<g>
		<path class="st2" d="M988.3,861.7c-0.1,0-0.1,0-0.2,0c-12.5,0-29.9,13.5-53.1,41.1c-17.7,21.1-33.7,44.6-40.2,55.3l-3.8,6.4
			l0.4-39.8c1.7-22.2,1.6-30.4-2.4-34.7c-1.7-1.9-4.1-2.8-7.1-2.9l-4.7,0l-0.2,0c-11.8,0.7-15.7,16.6-17.6,28.5
			c-2.4,15.1-3.5,36.9-3.2,68.2c-2.5,3.7-5.3,7.9-8.5,12.4c-26.3,38.4-39.4,55.3-49.4,56.9c-6.3,1-10.8-3.8-16.9-13.1
			c-11.6-14.8-18.4-34.1-30-78.6c-9.1-33.8-14.5-44.9-24.1-47.1c-2-0.6-3.8-0.3-5.6,0c-13.6,2.1-25.8,24.5-49,82.8
			c-6.6,16.8-11.8,30.6-12.7,30.7c-1.7,1.2-2.1-1.5-1.9-6.2c0.6-49.2,7.6-86.4,22.1-111.9c7.3-12.3,14.5-19.9,19.9-20.7
			c3.6-0.6,6.8,1.7,9.3,5.9c2.5,4.2,4.8,6.7,7.5,6.2c1.8-0.3,4.1-3.4,5-9.1c0.7-7.5,0.4-9.3-3.2-14.3c-5-8.5-13-11.8-22-10.4
			c-13.6,2.1-29,15.7-41.2,38c-17.7,34.3-27.9,98.9-20.2,135.7c3.3,15.2,8.2,22.8,17.7,24.1c2,0.6,4.7,0.2,6.5-0.1
			c10.8-1.7,18.8-15.9,34.1-53.6c6.6-16.8,15.2-38.5,18.6-46.5l6.1-13.9l7.7,31.2c14.7,63.5,31.7,95,57.2,104
			c5.9,1.9,9.6,2.2,15,1.3c1.8-0.3,3.6-0.6,6.3-1c14.3-3.2,26-11.5,38.9-29.3c4.2-5.7,8.8-21.3,13.2-38.8c0.8,29.6,3.3,39.3,12,44.3
			c3.4,2.3,6.9,3.4,10.5,3.5c0,0,0.1,0,0.1,0c11.3,0,13.7-14.6,15.5-32.2l0-0.1c2-27.8,11-50.2,33-82.6
			c21.1-30.1,50.8-63.4,56.7-65.4l0.5-0.1l0.4-0.2c0.4-0.2,1.8-0.4,2.8-0.5c1.4-0.2,3.1-0.4,4.6-0.9c6.1-1.2,8.8-4.5,8.9-10.6
			C1001.8,866.5,996.4,861.8,988.3,861.7z"/>
		<g>
			<g>
				<path class="st2" d="M914.8,636.8c1,6.2-0.9,10.6-5.8,13.1c-1.1,0.2-7.3,1.5-18.5,3.8c-11.2,2.4-26.4,5.5-45.5,9.4
					c-19.1,3.9-36.8,7.4-53.1,10.6L680.3,694l-7.8,16.9c-5,12.4-15.9,45.1-32.7,98.3c-16.8,53.1-33.6,109-50.5,167.6
					c-16.8,58.6-28.3,99.7-34.4,123.3c-9,38.5-16.1,77.2-21.2,116c-5.2,38.8-8.6,66.3-10.4,82.6c-1.8,16.2-4.9,24.7-9.5,25.4
					c-6.8,1.1-10.8,1.4-12,1c-12.5-9-10.6-61.3,5.7-156.6c4.2-25,14.3-68.8,30.5-131.4c16.2-62.6,30.9-114.6,44-156.2
					c3.9-12.2,6.6-21.3,8.3-27.4s1.9-9,0.8-8.8c-2.3,0.4-13.7,16.1-34.3,47.2c-11.3,16.9-26.8,38.6-46.7,65.2
					c-19.8,26.6-38.6,51.8-56.3,75.5c-17.7,23.7-27.3,36.5-28.7,38.5l4.7,29.7c6.3,39.6-2,66.4-24.7,80.5c-15.8,10-30.3,10-43.5-0.1
					c-6-4.9-9.7-11.5-11-20c-1-6.2,1.3-17.3,6.9-33.3c5.6-16,12-30.6,19.2-43.9c5.5-9,8.5-16,8.8-21c0.4-5-1-17.4-4.1-37.2
					c-3.4-21.5-4.8-39.5-4.2-54.1c2.5-17.2,9.6-29.9,21.3-38.2c11.7-8.2,22.6-8.5,32.5-0.8c10.6,8.2,13.3,17.9,8.1,29.2
					c-3.9,8.2-10,10.3-18.1,6.4c-8.6-2.7-13,0.6-13.2,9.9c0.1,4.1,0.9,12.9,2.5,26.6c0.6,10.9,1.1,19.8,1.6,26.7
					c2-2.1,5.8-6.6,11.3-13.5c5.6-7,10.9-13.8,15.9-20.4c5-6.6,11.5-15,19.5-25.3c7.9-10.2,15.6-20.4,23-30.6
					c7.4-10.2,15.7-21.8,24.9-34.8c9.2-13.1,18.1-26.1,26.5-39c21.3-30.6,43.5-65,66.7-103.2c23.2-38.2,34.6-58.7,34.2-61.5
					c-0.1-0.6-2.6-0.6-7.4-0.1c-4.8,0.5-13.3,2-25.4,4.4c-12.1,2.5-28.1,5.9-48,10.2s-44.7,10-74.3,17
					c-29.7,6.4-48.8,10.3-57.3,11.7c-8.5,1.3-14.1,0.8-16.8-1.7c-4.6-3.3-6.7-7.8-6.5-13.3s2.8-9.6,7.7-12.1
					c3.8-1.8,11.1-4.1,21.9-7s23.6-6.1,38.1-9.5c14.5-3.5,30.1-6.9,46.6-10.4c16.6-3.5,32.7-6.9,48.4-10.3s30.2-6.4,43.4-9
					c13.2-2.7,27.7-5.5,43.4-8.6c4.7-10.6,12.4-29.5,23.2-56.7c10.8-27.2,18.7-46.9,23.7-59c5-12.1,12.2-27.3,21.5-45.6
					c9.3-18.3,18.6-34.3,28.1-47.9c8.4-12.9,15.7-20.9,21.9-23.9c6.2-3,12.7-1.6,19.4,4.3c3.8,2.3,6,4.8,6.4,7.7s-0.4,8.7-2.4,17.8
					c-2.9,15-11.7,38-26.5,69c-14.8,31.1-28.8,58.8-42.1,83.2c-13.2,24.4-19.7,37.5-19.5,39.2c0.3,2.3,32.2-1.6,95.6-11.7l0.8-0.1
					c56.1-8.3,89.4-12.6,99.8-12.8C908.1,627.6,913.8,630.6,914.8,636.8z M387.3,1129.2c-5.8,14.8-6.9,22.6-3.3,23.2
					c4.2,0.5,8-4.5,11.6-14.9c2.6-9.1,2.8-15.2,0.6-18.4C395.5,1115.2,392.6,1118.5,387.3,1129.2z"/>
				<path class="st2" d="M1062.5,921.5c70.7-58.8,117.1-92.2,139-100.3c14.8-5.2,21.2-1.3,19.3,11.7c-0.8,2.4-7.5,8.7-20.1,18.8
					c-12.6,10.1-29.4,23.4-50.3,39.7c-20.9,16.4-37.5,29.9-49.7,40.5l-31.4,26.7l3.9,24.6c3.9,24.3,0.3,43.1-10.6,56.5
					c-10.9,13.3-26.2,16.9-45.7,10.7c-15.3-5.1-25-13.2-29.1-24.1c-4.1-11-1.9-22.9,6.5-35.8c8.3-13.5,20.1-27,35.4-40.4
					c-1.2-7.9-2.6-16.7-4.2-26.3c-1.5-9.6-2.6-16.3-3.2-19.9c-0.6-3.7-1.3-8.2-2.2-13.6c-0.8-5.4-1.1-9.4-0.6-12.1
					c0.4-2.7,1-5.7,1.6-8.9c0.6-3.3,1.5-6.8,2.7-10.4c4.4-8.8,11-15.8,19.7-21c8.7-5.2,17.6-6.7,26.7-4.7c10.8,2.3,16,7.8,15.6,16.2
					c-0.4,8.5-6.3,13.6-17.6,15.4c-7.4,1.2-11.8,4.3-13.3,9.5c-1.5,5.2-0.5,15,2.9,29.6L1062.5,921.5z M1024,1018.9
					c6.9,3.5,12,2.7,15.3-2.4c3.2-5.2,4.4-10.8,3.4-17.1c-1-6.2-1.6-9.9-1.7-11c-0.4-2.8-5,1.1-13.8,11.8c-0.4,1.2-1.3,2.8-2.7,4.8
					c-3.3,4.6-5.1,7.5-5.2,8.6C1019.2,1014.8,1020.7,1016.5,1024,1018.9z"/>
				<path class="st2" d="M1429,790.5c8.3,12-0.5,30.7-26.4,55.9c-25.9,25.3-57.8,46.1-95.8,62.6c-13.1,5-24.2,7.6-33.1,7.8
					c-8.9,0.2-17.4-2.8-25.4-9l-10.9-8.7l-8.3,13.5c-4.2,6.5-9.6,15.3-16.3,26.5c-6.6,11.2-12.3,20.5-16.9,27.9
					c-4.6,7.4-9.4,14.8-14.3,22.3c-4.9,7.4-9.3,12.8-13.1,16c-3.8,3.2-7,4.2-9.6,2.8c-6.5-4.2-7.6-15.3-3.5-33.4
					c4.1-18,18.2-68.1,42.3-150.2c23.3-79.7,43.4-149,60.2-207.9c45.1-158.5,70.2-241.6,75.3-249.4c7.5-11,15.6-12.9,24.3-5.6
					c0.1,0.6,0.7,1,2,1.4c3.1,1.3-0.4,20.5-10.4,57.8c-10.1,37.3-47.6,167.2-112.7,389.7c-7.9,27.3-14,48.6-18.6,63.8l18.9-29.1
					c15.2-21,31.4-38.7,48.5-53.4c17.1-14.6,30.1-21.5,38.9-20.5c12.6,2.6,17.8,9.7,15.5,21s-11.1,25-26.6,40.8
					c-28.1,27.6-41.8,44-40.9,49.1c0.3,1.7,2.7,2.2,7.2,1.5c4.5-0.7,10.5-2.4,17.9-5c7.4-2.6,14.5-6.2,21.4-10.8
					c31.9-18.4,58-38.7,78.2-61.1c10.4-11.5,17.4-18.3,21.1-20.3C1421.7,784.5,1425.4,785.8,1429,790.5z"/>
				<path class="st2" d="M1769.9,736.4c2.9,3.6,3,8.2,0.4,13.8c-0.9,1.9-6.7,8.2-17.4,18.9c-10.8,10.7-24.1,23.5-40,38.5
					s-31,29.4-45.3,43.3c-14.3,13.9-28.1,26.8-41.3,38.7c-13.2,11.9-20,18.2-20.5,18.9c-3,2.8-10.4,18.5-22.1,47
					c-21.3,52.1-47.2,101.5-77.4,148.4c-30.3,46.8-58.8,81.1-85.5,102.7c-8.2,7.1-17.8,12.1-28.9,15c-11.1,2.9-20.1,3.2-26.8,0.8
					c-6.2-2.5-11.1-8.1-14.8-16.8c-3.7-8.7-5.1-17.7-4.3-27.2c2.4-21.3,11.5-44.7,27.1-70.4c15.7-25.7,34.2-49.9,55.5-72.7
					c21.3-22.8,42.4-44.3,63.3-64.4c20.9-20.1,39.6-37.7,56-52.8c16.5-15.1,26-25.2,28.7-30.2c2.7-8.6,4.8-19.9,6.4-34.1
					c1.5-14.2,2-25.8,1.4-35c-0.6-9.2-2.1-14.2-4.5-14.9c-0.6,0.1-14.4,11.6-41.5,34.4c-25.9,23.2-45,38.9-57.4,46.9
					c-12.4,8-25,13.1-38.1,15.2c-19.8,3.1-34.9-1.6-45.3-14.1c-10.4-12.6-12.6-29.5-6.7-50.7c3.7-13.3,8.9-25.9,15.8-37.7
					c6.8-11.8,12.9-19,18.3-21.6c12-4.8,20.6-2.5,25.9,6.8c5.2,9.3,2.6,17.4-7.9,24.3c-9.5,6.1-16,17-19.6,32.7
					c-3.6,15.7-1.7,24.9,5.7,27.8c12.9,4.3,37-9.6,72.5-41.9c15.3-13.4,27-23.6,35.2-30.4c8.2-6.8,16.1-13,23.6-18.5
					c7.5-5.5,13.4-8.6,17.7-9.3c4.2-0.7,8.1-0.7,11.7-0.1c3.6,0.6,7.6,2.6,12.2,5.9c5.2,3.2,8.5,7.1,10.1,11.5
					c1.6,4.4,3,14.3,4.3,29.8l3.5,33.4c18.6-18,39.6-37.6,62.9-58.7c32.4-29.5,53.6-47.3,63.3-53.5
					C1755.7,729.7,1763.7,729.9,1769.9,736.4z M1472,1096.8c7.5-11.1,17-26.6,28.3-46.7c11.3-20.1,21.1-38,29.3-53.8
					c8.2-15.8,12-23.9,11.4-24.4c-0.1-0.6-14.3,12.4-42.6,38.9c-35,35.1-64,69.4-86.8,102.9s-33.2,57-31,70.6c0.8,5.1,2,7.7,3.4,7.7
					c1.5,0,5.8-2.5,13.1-7.7c9.8-7.9,22-20.4,36.7-37.6C1448.5,1129.6,1461.3,1113,1472,1096.8z"/>
			</g>
		</g>
	</g>
</g>
</svg>
