<?xml version="1.0" encoding="utf-8"?>
<!-- Generator: Adobe Illustrator 28.0.0, SVG Export Plug-In . SVG Version: 6.00 Build 0)  -->
<svg version="1.1"
	 id="Layer_1" xmlns:dc="http://purl.org/dc/elements/1.1/" xmlns:cc="http://creativecommons.org/ns#" xmlns:rdf="http://www.w3.org/1999/02/22-rdf-syntax-ns#" xmlns:svg="http://www.w3.org/2000/svg" xmlns:sodipodi="http://sodipodi.sourceforge.net/DTD/sodipodi-0.dtd" xmlns:inkscape="http://www.inkscape.org/namespaces/inkscape" sodipodi:docname="text-only-sunset.svg"
	 xmlns="http://www.w3.org/2000/svg" xmlns:xlink="http://www.w3.org/1999/xlink" x="0px" y="0px" viewBox="0 0 1531.8 1114.8"
	 style="enable-background:new 0 0 1531.8 1114.8;" xml:space="preserve">
<style type="text/css">
	.st0{fill:#1D1D1B;}
	.st1{fill:#FFFFFF;}
</style>
<sodipodi:namedview  bordercolor="#666666" borderopacity="1" gridtolerance="10" guidetolerance="10" id="namedview2657" inkscape:pageopacity="0" inkscape:pageshadow="2" inkscape:window-height="480" inkscape:window-width="640" objecttolerance="10" pagecolor="#ffffff" showgrid="false">
	</sodipodi:namedview>
<g id="g2647">
	<g id="g2623">
		<path id="path2611" class="st0" d="M454.2,1106.3c-4.1,2.5-8.7,4.5-13.8,5.9c-5.2,1.4-10.6,2.1-16.4,2.1c-6.9,0-13.4-1-19.4-3
			s-11.2-4.8-15.6-8.4c-4.5-3.6-8-7.8-10.5-12.6c-2.5-4.8-3.8-10-3.8-15.5c0-6.9,2-13.3,5.9-19.1c3.9-5.8,9.2-10.4,15.8-13.9
			c-2.2-3-3.9-6.3-5.1-9.8s-1.8-7.3-1.8-11.4c0-5,1-9.7,2.9-14.2s4.5-8.3,7.7-11.6c3.2-3.2,7.1-5.8,11.5-7.7s9.1-2.9,14.2-2.9
			c5,0,9.7,1,14.2,2.9s8.3,4.5,11.6,7.7c3.3,3.2,5.9,7.1,7.8,11.6s2.9,9.2,2.9,14.2c0,6.6-1.6,12.6-4.7,17.9s-7.3,9.6-12.5,12.7
			l10.6,12.7l16.7-14.6l20.2,22.8l-17,14.9l22.6,27.6l-36.5-0.2L454.2,1106.3z M406.4,1078c1.3,2.5,3.1,4.4,5.6,5.6
			c2.4,1.2,6.3,1.7,11.5,1.5c1.9-0.1,3.6-0.4,5.4-0.9c1.7-0.5,3.2-0.9,4.5-1.4l-16.2-18.2c-0.7,0.5-1.3,0.8-1.7,1.1
			c-0.5,0.3-1.3,0.7-2.4,1.3c-2.9,2-5,3.9-6.2,5.7C405.6,1074.6,405.5,1076.3,406.4,1078z M425.7,1014.2c-1.7,0-3.2,0.6-4.4,1.8
			c-1.2,1.2-1.8,2.7-1.8,4.4c0,1.6,0.6,3,1.8,4.3c1.2,1.2,2.7,1.8,4.4,1.8c1.7,0,3.2-0.6,4.4-1.8c1.2-1.2,1.8-2.6,1.8-4.3
			s-0.6-3.2-1.8-4.4C428.9,1014.8,427.4,1014.2,425.7,1014.2z"/>
		<path id="path2613" class="st0" d="M664.9,984.2v130.3h-29.2v-49.9h-48.6v49.9h-29.2V984.2h29.2v51.4h48.6v-51.4L664.9,984.2
			L664.9,984.2z"/>
		<path id="path2615" class="st0" d="M714.6,1114.6h-31.3l51.4-130.8h18.9l47.6,130.8h-31.1l-7.8-22.1h-39.4L714.6,1114.6z
			 M743.6,1040.6l-9.2,23.1h17.5L743.6,1040.6z"/>
		<path id="path2617" class="st0" d="M896.8,1013.3h-32.3v101.1h-29v-101.1h-32.3v-29h93.6V1013.3z"/>
		<path id="path2619" class="st0" d="M970.8,1114.8c-9,0-17.5-1.7-25.5-5.1c-7.9-3.4-14.9-8.1-20.8-14s-10.6-12.8-14-20.8
			c-3.4-7.9-5.1-16.4-5.1-25.3c0-9,1.7-17.5,5.1-25.5c3.4-7.9,8.1-14.9,14-20.8s12.8-10.6,20.8-14c7.9-3.4,16.4-5.1,25.5-5.1
			s17.9,1.9,26.3,5.6c8.4,3.7,15.7,9,22,16l-21,18.9c-3.6-3.9-7.7-6.9-12.4-9s-9.6-3.1-14.9-3.1c-5.1,0-9.9,1-14.4,2.9
			s-8.5,4.5-11.8,7.9c-3.4,3.4-6,7.3-7.9,11.8s-2.9,9.3-2.9,14.4s1,9.9,2.9,14.3c1.9,4.5,4.5,8.4,7.9,11.7c3.4,3.4,7.3,6,11.8,7.9
			s9.3,2.9,14.4,2.9c5.2,0,10.2-1,14.9-3.1s8.8-5.1,12.4-9l21,19.1c-6.3,6.9-13.6,12.2-22,15.9C988.7,1113,980,1114.8,970.8,1114.8z
			"/>
		<path id="path2621" class="st0" d="M1154.6,984.2v130.3h-29.2v-49.9h-48.6v49.9h-29.2V984.2h29.2v51.4h48.6v-51.4L1154.6,984.2
			L1154.6,984.2z"/>
	</g>
	<rect id="rect2625" x="8.3" y="878.8" class="st0" width="179.4" height="13.5"/>
	<rect id="rect2627" x="397.1" y="878.8" class="st0" width="618.9" height="13.5"/>
	<rect id="rect2629" x="1246.1" y="884.4" class="st0" width="257" height="13.5"/>
	<g id="g2645">
		<path id="path2631" class="st0" d="M747.9,510.3c-0.1,0-0.1,0-0.2,0c-12.5,0-29.9,13.5-53.1,41.1c-17.7,21.1-33.7,44.6-40.2,55.3
			l-3.8,6.4l0.4-39.8c1.7-22.2,1.6-30.4-2.4-34.7c-1.7-1.9-4.1-2.8-7.1-2.9h-4.7h-0.2c-11.8,0.7-15.7,16.6-17.6,28.5
			c-2.4,15.1-3.5,36.9-3.2,68.2c-2.5,3.7-5.3,7.9-8.5,12.4c-26.3,38.4-39.4,55.3-49.4,56.9c-6.3,1-10.8-3.8-16.9-13.1
			c-11.6-14.8-18.4-34.1-30-78.6c-9.1-33.8-14.5-44.9-24.1-47.1c-2-0.6-3.8-0.3-5.6,0c-13.6,2.1-25.8,24.5-49,82.8
			c-6.6,16.8-11.8,30.6-12.7,30.7c-1.7,1.2-2.1-1.5-1.9-6.2c0.6-49.2,7.6-86.4,22.1-111.9c7.3-12.3,14.5-19.9,19.9-20.7
			c3.6-0.6,6.8,1.7,9.3,5.9s4.8,6.7,7.5,6.2c1.8-0.3,4.1-3.4,5-9.1c0.7-7.5,0.4-9.3-3.2-14.3c-5-8.5-13-11.8-22-10.4
			c-13.6,2.1-29,15.7-41.2,38c-17.7,34.3-27.9,98.9-20.2,135.7c3.3,15.2,8.2,22.8,17.7,24.1c2,0.6,4.7,0.2,6.5-0.1
			c10.8-1.7,18.8-15.9,34.1-53.6c6.6-16.8,15.2-38.5,18.6-46.5l6.1-13.9l7.7,31.2c14.7,63.5,31.7,95,57.2,104
			c5.9,1.9,9.6,2.2,15,1.3c1.8-0.3,3.6-0.6,6.3-1c14.3-3.2,26-11.5,38.9-29.3c4.2-5.7,8.8-21.3,13.2-38.8c0.8,29.6,3.3,39.3,12,44.3
			c3.4,2.3,6.9,3.4,10.5,3.5h0.1c11.3,0,13.7-14.6,15.5-32.2v-0.1c2-27.8,11-50.2,33-82.6c21.1-30.1,50.8-63.4,56.7-65.4l0.5-0.1
			l0.4-0.2c0.4-0.2,1.8-0.4,2.8-0.5c1.4-0.2,3.1-0.4,4.6-0.9c6.1-1.2,8.8-4.5,8.9-10.6C761.3,515.1,756,510.4,747.9,510.3z"/>
		<g id="g2643">
			<g id="g2641">
				<path id="path2633" class="st0" d="M674.4,285.4c1,6.2-0.9,10.6-5.8,13.1c-1.1,0.2-7.3,1.5-18.5,3.8
					c-11.2,2.4-26.4,5.5-45.5,9.4s-36.8,7.4-53.1,10.6l-111.6,20.3l-7.8,16.9c-5,12.4-15.9,45.1-32.7,98.3
					c-16.8,53.1-33.6,109-50.5,167.6c-16.8,58.6-28.3,99.7-34.4,123.3c-9,38.5-16.1,77.2-21.2,116c-5.2,38.8-8.6,66.3-10.4,82.6
					c-1.8,16.2-4.9,24.7-9.5,25.4c-6.8,1.1-10.8,1.4-12,1c-12.5-9-10.6-61.3,5.7-156.6c4.2-25,14.3-68.8,30.5-131.4
					s30.9-114.6,44-156.2c3.9-12.2,6.6-21.3,8.3-27.4s1.9-9,0.8-8.8c-2.3,0.4-13.7,16.1-34.3,47.2c-11.3,16.9-26.8,38.6-46.7,65.2
					s-38.6,51.8-56.3,75.5s-27.3,36.5-28.7,38.5l4.7,29.7c6.3,39.6-2,66.4-24.7,80.5c-15.8,10-30.3,10-43.5-0.1
					c-6-4.9-9.7-11.5-11-20c-1-6.2,1.3-17.3,6.9-33.3s12-30.6,19.2-43.9c5.5-9,8.5-16,8.8-21c0.4-5-1-17.4-4.1-37.2
					c-3.4-21.5-4.8-39.5-4.2-54.1c2.5-17.2,9.6-29.9,21.3-38.2c11.7-8.2,22.6-8.5,32.5-0.8c10.6,8.2,13.3,17.9,8.1,29.2
					c-3.9,8.2-10,10.3-18.1,6.4c-8.6-2.7-13,0.6-13.2,9.9c0.1,4.1,0.9,12.9,2.5,26.6c0.6,10.9,1.1,19.8,1.6,26.7
					c2-2.1,5.8-6.6,11.3-13.5c5.6-7,10.9-13.8,15.9-20.4c5-6.6,11.5-15,19.5-25.3c7.9-10.2,15.6-20.4,23-30.6
					c7.4-10.2,15.7-21.8,24.9-34.8c9.2-13.1,18.1-26.1,26.5-39c21.3-30.6,43.5-65,66.7-103.2s34.6-58.7,34.2-61.5
					c-0.1-0.6-2.6-0.6-7.4-0.1s-13.3,2-25.4,4.4c-12.1,2.5-28.1,5.9-48,10.2s-44.7,10-74.3,17c-29.7,6.4-48.8,10.3-57.3,11.7
					c-8.5,1.3-14.1,0.8-16.8-1.7c-4.6-3.3-6.7-7.8-6.5-13.3c0.3-5.6,2.8-9.6,7.7-12.1c3.8-1.8,11.1-4.1,21.9-7
					c10.9-2.9,23.6-6.1,38.1-9.5c14.5-3.5,30.1-6.9,46.6-10.4c16.6-3.5,32.7-6.9,48.4-10.3c15.7-3.4,30.2-6.4,43.4-9
					c13.2-2.7,27.7-5.5,43.4-8.6c4.7-10.6,12.4-29.5,23.2-56.7c10.8-27.2,18.7-46.9,23.7-59s12.2-27.3,21.5-45.6
					s18.6-34.3,28.1-47.9C512.2,91,519.5,83,525.7,80s12.7-1.6,19.4,4.3c3.8,2.3,6,4.8,6.4,7.7c0.4,2.8-0.4,8.7-2.4,17.8
					c-2.9,15-11.7,38-26.5,69c-14.8,31.1-28.8,58.8-42.1,83.2c-13.2,24.4-19.7,37.5-19.5,39.2c0.3,2.3,32.2-1.6,95.6-11.7l0.8-0.1
					c56.1-8.3,89.4-12.6,99.8-12.8C667.7,276.2,673.4,279.2,674.4,285.4z M146.8,777.8c-5.8,14.8-6.9,22.6-3.3,23.2
					c4.2,0.5,8-4.5,11.6-14.9c2.6-9.1,2.8-15.2,0.6-18.4C155.1,763.7,152.1,767.1,146.8,777.8z"/>
				<path id="path2635" class="st0" d="M822.1,570.1c70.7-58.8,117.1-92.2,139-100.3c14.8-5.2,21.2-1.3,19.3,11.7
					c-0.8,2.4-7.5,8.7-20.1,18.8c-12.6,10.1-29.4,23.4-50.3,39.7s-37.5,29.9-49.7,40.5l-31.4,26.7l3.9,24.6
					c3.9,24.3,0.3,43.1-10.6,56.5c-10.9,13.3-26.2,16.9-45.7,10.7c-15.3-5.1-25-13.2-29.1-24.1c-4.1-11-1.9-22.9,6.5-35.8
					c8.3-13.5,20.1-27,35.4-40.4c-1.2-7.9-2.6-16.7-4.2-26.3c-1.5-9.6-2.6-16.3-3.2-19.9c-0.6-3.7-1.3-8.2-2.2-13.6
					c-0.8-5.4-1.1-9.4-0.6-12.1c0.4-2.7,1-5.7,1.6-8.9c0.6-3.3,1.5-6.8,2.7-10.4c4.4-8.8,11-15.8,19.7-21s17.6-6.7,26.7-4.7
					c10.8,2.3,16,7.8,15.6,16.2c-0.4,8.5-6.3,13.6-17.6,15.4c-7.4,1.2-11.8,4.3-13.3,9.5s-0.5,15,2.9,29.6L822.1,570.1z
					 M783.6,667.5c6.9,3.5,12,2.7,15.3-2.4c3.2-5.2,4.4-10.8,3.4-17.1c-1-6.2-1.6-9.9-1.7-11c-0.4-2.8-5,1.1-13.8,11.8
					c-0.4,1.2-1.3,2.8-2.7,4.8c-3.3,4.6-5.1,7.5-5.2,8.6C778.7,663.3,780.3,665.1,783.6,667.5z"/>
				<path id="path2637" class="st0" d="M1188.5,439.1c8.3,12-0.5,30.7-26.4,55.9c-25.9,25.3-57.8,46.1-95.8,62.6
					c-13.1,5-24.2,7.6-33.1,7.8s-17.4-2.8-25.4-9l-10.9-8.7l-8.3,13.5c-4.2,6.5-9.6,15.3-16.3,26.5c-6.6,11.2-12.3,20.5-16.9,27.9
					c-4.6,7.4-9.4,14.8-14.3,22.3c-4.9,7.4-9.3,12.8-13.1,16s-7,4.2-9.6,2.8c-6.5-4.2-7.6-15.3-3.5-33.4
					c4.1-18,18.2-68.1,42.3-150.2c23.3-79.7,43.4-149,60.2-207.9c45.1-158.5,70.2-241.6,75.3-249.4c7.5-11,15.6-12.9,24.3-5.6
					c0.1,0.6,0.7,1,2,1.4c3.1,1.3-0.4,20.5-10.4,57.8c-10.1,37.3-47.6,167.2-112.7,389.7c-7.9,27.3-14,48.6-18.6,63.8l18.9-29.1
					c15.2-21,31.4-38.7,48.5-53.4c17.1-14.6,30.1-21.5,38.9-20.5c12.6,2.6,17.8,9.7,15.5,21c-2.3,11.4-11.1,25-26.6,40.8
					c-28.1,27.6-41.8,44-40.9,49.1c0.3,1.7,2.7,2.2,7.2,1.5s10.5-2.4,17.9-5s14.5-6.2,21.4-10.8c31.9-18.4,58-38.7,78.2-61.1
					c10.4-11.5,17.4-18.3,21.1-20.3C1181.2,433.1,1184.9,434.4,1188.5,439.1z"/>
				<path id="path2639" class="st0" d="M1529.5,385c2.9,3.6,3,8.2,0.4,13.8c-0.9,1.9-6.7,8.2-17.4,18.9
					c-10.8,10.7-24.1,23.5-40,38.5s-31,29.4-45.3,43.3s-28.1,26.8-41.3,38.7c-13.2,11.9-20,18.2-20.5,18.9c-3,2.8-10.4,18.5-22.1,47
					c-21.3,52.1-47.2,101.5-77.4,148.4c-30.3,46.8-58.8,81.1-85.5,102.7c-8.2,7.1-17.8,12.1-28.9,15s-20.1,3.2-26.8,0.8
					c-6.2-2.5-11.1-8.1-14.8-16.8c-3.7-8.7-5.1-17.7-4.3-27.2c2.4-21.3,11.5-44.7,27.1-70.4c15.7-25.7,34.2-49.9,55.5-72.7
					s42.4-44.3,63.3-64.4c20.9-20.1,39.6-37.7,56-52.8c16.5-15.1,26-25.2,28.7-30.2c2.7-8.6,4.8-19.9,6.4-34.1
					c1.5-14.2,2-25.8,1.4-35s-2.1-14.2-4.5-14.9c-0.6,0.1-14.4,11.6-41.5,34.4c-25.9,23.2-45,38.9-57.4,46.9s-25,13.1-38.1,15.2
					c-19.8,3.1-34.9-1.6-45.3-14.1c-10.4-12.6-12.6-29.5-6.7-50.7c3.7-13.3,8.9-25.9,15.8-37.7c6.8-11.8,12.9-19,18.3-21.6
					c12-4.8,20.6-2.5,25.9,6.8s2.6,17.4-7.9,24.3c-9.5,6.1-16,17-19.6,32.7s-1.7,24.9,5.7,27.8c12.9,4.3,37-9.6,72.5-41.9
					c15.3-13.4,27-23.6,35.2-30.4s16.1-13,23.6-18.5s13.4-8.6,17.7-9.3c4.2-0.7,8.1-0.7,11.7-0.1s7.6,2.6,12.2,5.9
					c5.2,3.2,8.5,7.1,10.1,11.5s3,14.3,4.3,29.8l3.5,33.4c18.6-18,39.6-37.6,62.9-58.7c32.4-29.5,53.6-47.3,63.3-53.5
					C1515.2,378.3,1523.2,378.5,1529.5,385z M1231.6,745.3c7.5-11.1,17-26.6,28.3-46.7c11.3-20.1,21.1-38,29.3-53.8
					c8.2-15.8,12-23.9,11.4-24.4c-0.1-0.6-14.3,12.4-42.6,38.9c-35,35.1-64,69.4-86.8,102.9s-33.2,57-31,70.6c0.8,5.1,2,7.7,3.4,7.7
					c1.5,0,5.8-2.5,13.1-7.7c9.8-7.9,22-20.4,36.7-37.6C1208.1,778.2,1220.8,761.5,1231.6,745.3z"/>
			</g>
		</g>
	</g>
</g>
<path id="path2654" class="st1" d="M445.9,1100.5c-4.1,2.5-8.7,4.5-13.8,5.9c-5.2,1.4-10.6,2.1-16.4,2.1c-6.9,0-13.4-1-19.4-3
	s-11.2-4.8-15.6-8.4c-4.5-3.6-8-7.8-10.5-12.6c-2.5-4.8-3.8-10-3.8-15.5c0-6.9,2-13.3,5.9-19.1c3.9-5.8,9.2-10.4,15.8-13.9
	c-2.2-3-3.9-6.3-5.1-9.8s-1.8-7.3-1.8-11.4c0-5,1-9.7,2.9-14.2s4.5-8.3,7.7-11.6c3.2-3.2,7.1-5.8,11.5-7.7s9.1-2.9,14.2-2.9
	c5,0,9.7,1,14.2,2.9s8.3,4.5,11.6,7.7c3.3,3.2,5.9,7.1,7.8,11.6s2.9,9.2,2.9,14.2c0,6.6-1.6,12.6-4.7,17.9s-7.3,9.6-12.5,12.7
	l10.6,12.7l16.7-14.6l20.2,22.8l-17,14.9l22.6,27.6l-36.5-0.2L445.9,1100.5z M398.1,1072.2c1.3,2.5,3.1,4.4,5.6,5.6
	c2.4,1.2,6.3,1.7,11.5,1.5c1.9-0.1,3.6-0.4,5.4-0.9c1.7-0.5,3.2-0.9,4.5-1.4l-16.2-18.2c-0.7,0.5-1.3,0.8-1.7,1.1
	c-0.5,0.3-1.3,0.7-2.4,1.3c-2.9,2-5,3.9-6.2,5.7C397.4,1068.8,397.2,1070.5,398.1,1072.2z M417.4,1008.4c-1.7,0-3.2,0.6-4.4,1.8
	c-1.2,1.2-1.8,2.7-1.8,4.4c0,1.6,0.6,3,1.8,4.3c1.2,1.2,2.7,1.8,4.4,1.8c1.7,0,3.2-0.6,4.4-1.8c1.2-1.2,1.8-2.6,1.8-4.3
	s-0.6-3.2-1.8-4.4S419.2,1008.4,417.4,1008.4z M656.6,978.4v130.3h-29.2v-49.9h-48.6v49.9h-29.2V978.4h29.2v51.4h48.6v-51.4H656.6z
	 M706.3,1108.8H675L726.5,978h18.9l47.6,130.8h-31.1l-7.8-22.1h-39.4L706.3,1108.8z M735.3,1034.8l-9.2,23.1h17.5L735.3,1034.8z
	 M888.5,1007.5h-32.3v101.1h-29v-101.1h-32.3v-29h93.6V1007.5z M962.5,1109c-9,0-17.5-1.7-25.5-5.1c-7.9-3.4-14.9-8.1-20.8-14
	s-10.6-12.8-14-20.8c-3.4-7.9-5.1-16.4-5.1-25.3c0-9,1.7-17.5,5.1-25.5c3.4-7.9,8.1-14.9,14-20.8s12.8-10.6,20.8-14
	c7.9-3.4,16.4-5.1,25.5-5.1s17.9,1.9,26.3,5.6c8.4,3.7,15.7,9,22,16l-21,18.9c-3.6-3.9-7.7-6.9-12.4-9s-9.6-3.1-14.9-3.1
	c-5.1,0-9.9,1-14.4,2.9s-8.5,4.5-11.8,7.9c-3.4,3.4-6,7.3-7.9,11.8s-2.9,9.3-2.9,14.4s1,9.9,2.9,14.3c1.9,4.5,4.5,8.4,7.9,11.7
	c3.4,3.4,7.3,6,11.8,7.9s9.3,2.9,14.4,2.9c5.2,0,10.2-1,14.9-3.1s8.8-5.1,12.4-9l21,19.1c-6.3,6.9-13.6,12.2-22,15.9
	C980.5,1107.2,971.7,1109,962.5,1109z M1146.3,978.4v130.3h-29.2v-49.9h-48.6v49.9h-29.2V978.4h29.2v51.4h48.6v-51.4H1146.3z
	 M179.4,873H0v13.5h179.4V873z M1007.7,873H388.8v13.5h618.9V873z M1494.8,878.6h-257v13.5h257V878.6z M739.6,504.5
	c-0.1,0-0.1,0-0.2,0c-12.5,0-29.9,13.5-53.1,41.1c-17.7,21.1-33.7,44.6-40.2,55.3l-3.8,6.4l0.4-39.8c1.7-22.2,1.6-30.4-2.4-34.7
	c-1.7-1.9-4.1-2.8-7.1-2.9h-4.7h-0.2c-11.8,0.7-15.7,16.6-17.6,28.5c-2.4,15.1-3.5,36.9-3.2,68.2c-2.5,3.7-5.3,7.9-8.5,12.4
	c-26.3,38.4-39.4,55.3-49.4,56.9c-6.3,1-10.8-3.8-16.9-13.1c-11.6-14.8-18.4-34.1-30-78.6c-9.1-33.8-14.5-44.9-24.1-47.1
	c-2-0.6-3.8-0.3-5.6,0c-13.6,2.1-25.8,24.5-49,82.8c-6.6,16.8-11.8,30.6-12.7,30.7c-1.7,1.2-2.1-1.5-1.9-6.2
	c0.6-49.2,7.6-86.4,22.1-111.9c7.3-12.3,14.5-19.9,19.9-20.7c3.6-0.6,6.8,1.7,9.3,5.9s4.8,6.7,7.5,6.2c1.8-0.3,4.1-3.4,5-9.1
	c0.7-7.5,0.4-9.3-3.2-14.3c-5-8.5-13-11.8-22-10.4c-13.6,2.1-29,15.7-41.2,38c-17.7,34.3-27.9,98.9-20.2,135.7
	c3.3,15.2,8.2,22.8,17.7,24.1c2,0.6,4.7,0.2,6.5-0.1c10.8-1.7,18.8-15.9,34.1-53.6c6.6-16.8,15.2-38.5,18.6-46.5l6.1-13.9l7.7,31.2
	c14.7,63.5,31.7,95,57.2,104c5.9,1.9,9.6,2.2,15,1.3c1.8-0.3,3.6-0.6,6.3-1c14.3-3.2,26-11.5,38.9-29.3c4.2-5.7,8.8-21.3,13.2-38.8
	c0.8,29.6,3.3,39.3,12,44.3c3.4,2.3,6.9,3.4,10.5,3.5h0.1c11.3,0,13.7-14.6,15.5-32.2v-0.1c2-27.8,11-50.2,33-82.6
	c21.1-30.1,50.8-63.4,56.7-65.4l0.5-0.1l0.4-0.2c0.4-0.2,1.8-0.4,2.8-0.5c1.4-0.2,3.1-0.4,4.6-0.9c6.1-1.2,8.8-4.5,8.9-10.6
	C753.1,509.3,747.7,504.6,739.6,504.5z M666.1,279.6c1,6.2-0.9,10.6-5.8,13.1c-1.1,0.2-7.3,1.5-18.5,3.8
	c-11.2,2.4-26.4,5.5-45.5,9.4s-36.8,7.4-53.1,10.6l-111.6,20.3l-7.8,16.9c-5,12.4-15.9,45.1-32.7,98.3
	c-16.8,53.1-33.6,109-50.5,167.6c-16.8,58.6-28.3,99.7-34.4,123.3c-9,38.5-16.1,77.2-21.2,116c-5.2,38.8-8.6,66.3-10.4,82.6
	c-1.8,16.2-4.9,24.7-9.5,25.4c-6.8,1.1-10.8,1.4-12,1c-12.5-9-10.6-61.3,5.7-156.6c4.2-25,14.3-68.8,30.5-131.4s30.9-114.6,44-156.2
	c3.9-12.2,6.6-21.3,8.3-27.4c1.7-6.1,1.9-9,0.8-8.8c-2.3,0.4-13.7,16.1-34.3,47.2c-11.3,16.9-26.8,38.6-46.7,65.2
	s-38.6,51.8-56.3,75.5s-27.3,36.5-28.7,38.5l4.7,29.7c6.3,39.6-2,66.4-24.7,80.5c-15.8,10-30.3,10-43.5-0.1c-6-4.9-9.7-11.5-11-20
	c-1-6.2,1.3-17.3,6.9-33.3s12-30.6,19.2-43.9c5.5-9,8.5-16,8.8-21c0.4-5-1-17.4-4.1-37.2c-3.4-21.5-4.8-39.5-4.2-54.1
	c2.5-17.2,9.6-29.9,21.3-38.2c11.7-8.2,22.6-8.5,32.5-0.8c10.6,8.2,13.3,17.9,8.1,29.2c-3.9,8.2-10,10.3-18.1,6.4
	c-8.6-2.7-13,0.6-13.2,9.9c0.1,4.1,0.9,12.9,2.5,26.6c0.6,10.9,1.1,19.8,1.6,26.7c2-2.1,5.8-6.6,11.3-13.5
	c5.6-7,10.9-13.8,15.9-20.4c5-6.6,11.5-15,19.5-25.3c7.9-10.2,15.6-20.4,23-30.6c7.4-10.2,15.7-21.8,24.9-34.8s18.1-26.1,26.5-39
	c21.3-30.6,43.5-65,66.7-103.2s34.6-58.7,34.2-61.5c-0.1-0.6-2.6-0.6-7.4-0.1s-13.3,2-25.4,4.4c-12.1,2.5-28.1,5.9-48,10.2
	c-19.9,4.3-44.7,10-74.3,17c-29.7,6.4-48.8,10.3-57.3,11.7c-8.5,1.3-14.1,0.8-16.8-1.7c-4.6-3.3-6.7-7.8-6.5-13.3s2.8-9.6,7.7-12.1
	c3.8-1.8,11.1-4.1,21.9-7c10.9-2.9,23.6-6.1,38.1-9.5c14.5-3.5,30.1-6.9,46.6-10.4c16.6-3.5,32.7-6.9,48.4-10.3
	c15.7-3.4,30.2-6.4,43.4-9c13.2-2.7,27.7-5.5,43.4-8.6c4.7-10.6,12.4-29.5,23.2-56.7c10.8-27.2,18.7-46.9,23.7-59
	c5-12.1,12.2-27.3,21.5-45.6s18.6-34.3,28.1-47.9c8.4-12.9,15.7-20.9,21.9-23.9c6.2-3,12.7-1.6,19.4,4.3c3.8,2.3,6,4.8,6.4,7.7
	c0.4,2.8-0.4,8.7-2.4,17.8c-2.9,15-11.7,38-26.5,69c-14.8,31.1-28.8,58.8-42.1,83.2c-13.2,24.4-19.7,37.5-19.5,39.2
	c0.3,2.3,32.2-1.6,95.6-11.7l0.8-0.1c56.1-8.3,89.4-12.6,99.8-12.8C659.4,270.4,665.1,273.4,666.1,279.6z M138.6,772
	c-5.8,14.8-6.9,22.6-3.3,23.2c4.2,0.5,8-4.5,11.6-14.9c2.6-9.1,2.8-15.2,0.6-18.4C146.8,757.9,143.8,761.3,138.6,772z M813.8,564.3
	c70.7-58.8,117.1-92.2,139-100.3c14.8-5.2,21.2-1.3,19.3,11.7c-0.8,2.4-7.5,8.7-20.1,18.8c-12.6,10.1-29.4,23.4-50.3,39.7
	s-37.5,29.9-49.7,40.5l-31.4,26.7l3.9,24.6c3.9,24.3,0.3,43.1-10.6,56.5c-10.9,13.3-26.2,16.9-45.7,10.7
	c-15.3-5.1-25-13.2-29.1-24.1c-4.1-11-1.9-22.9,6.5-35.8c8.3-13.5,20.1-27,35.4-40.4c-1.2-7.9-2.6-16.7-4.2-26.3
	c-1.5-9.6-2.6-16.3-3.2-19.9c-0.6-3.7-1.3-8.2-2.2-13.6c-0.8-5.4-1.1-9.4-0.6-12.1c0.4-2.7,1-5.7,1.6-8.9c0.6-3.3,1.5-6.8,2.7-10.4
	c4.4-8.8,11-15.8,19.7-21s17.6-6.7,26.7-4.7c10.8,2.3,16,7.8,15.6,16.2c-0.4,8.5-6.3,13.6-17.6,15.4c-7.4,1.2-11.8,4.3-13.3,9.5
	s-0.5,15,2.9,29.6L813.8,564.3z M775.3,661.7c6.9,3.5,12,2.7,15.3-2.4c3.2-5.2,4.4-10.8,3.4-17.1c-1-6.2-1.6-9.9-1.7-11
	c-0.4-2.8-5,1.1-13.8,11.8c-0.4,1.2-1.3,2.8-2.7,4.8c-3.3,4.6-5.1,7.5-5.2,8.6C770.4,657.5,772,659.3,775.3,661.7z M1180.3,433.3
	c8.3,12-0.5,30.7-26.4,55.9c-25.9,25.3-57.8,46.1-95.8,62.6c-13.1,5-24.2,7.6-33.1,7.8s-17.4-2.8-25.4-9l-10.9-8.7l-8.3,13.5
	c-4.2,6.5-9.6,15.3-16.3,26.5c-6.6,11.2-12.3,20.5-16.9,27.9c-4.6,7.4-9.4,14.8-14.3,22.3c-4.9,7.4-9.3,12.8-13.1,16s-7,4.2-9.6,2.8
	c-6.4-4.2-7.6-15.3-3.5-33.4c4.1-18,18.2-68.1,42.3-150.2c23.3-79.7,43.4-149,60.2-207.9c45.1-158.5,70.2-241.6,75.3-249.4
	c7.5-11,15.6-12.9,24.3-5.6c0.1,0.6,0.7,1,2,1.4c3.1,1.3-0.4,20.5-10.4,57.8c-10.1,37.3-47.6,167.2-112.7,389.7
	c-7.9,27.3-14,48.6-18.6,63.8L988,488c15.2-21,31.4-38.7,48.5-53.4c17.1-14.6,30.1-21.5,38.9-20.5c12.6,2.6,17.8,9.7,15.5,21
	c-2.3,11.4-11.1,25-26.6,40.8c-28.1,27.6-41.8,44-40.9,49.1c0.3,1.7,2.7,2.2,7.2,1.5s10.5-2.4,17.9-5s14.5-6.2,21.4-10.8
	c31.9-18.4,58-38.7,78.2-61.1c10.4-11.5,17.4-18.3,21.1-20.3C1173,427.3,1176.6,428.6,1180.3,433.3z M1521.2,379.2
	c2.9,3.6,3,8.2,0.4,13.8c-0.9,1.9-6.7,8.2-17.4,18.9c-10.8,10.7-24.1,23.5-40,38.5s-31,29.4-45.3,43.3s-28.1,26.8-41.3,38.7
	c-13.2,11.9-20,18.2-20.5,18.9c-3,2.8-10.4,18.5-22.1,47c-21.3,52.1-47.2,101.5-77.4,148.4c-30.3,46.8-58.8,81.1-85.5,102.7
	c-8.2,7.1-17.8,12.1-28.9,15s-20.1,3.2-26.8,0.8c-6.2-2.5-11.1-8.1-14.8-16.8c-3.7-8.7-5.1-17.7-4.3-27.2
	c2.4-21.3,11.5-44.7,27.1-70.4c15.7-25.7,34.2-49.9,55.5-72.7s42.4-44.3,63.3-64.4c20.9-20.1,39.6-37.7,56-52.8
	c16.5-15.1,26-25.2,28.7-30.2c2.7-8.6,4.8-19.9,6.4-34.1c1.5-14.2,2-25.8,1.4-35s-2.1-14.2-4.5-14.9c-0.6,0.1-14.4,11.6-41.5,34.4
	c-25.9,23.2-45,38.9-57.4,46.9s-25,13.1-38.1,15.2c-19.8,3.1-34.9-1.6-45.3-14.1c-10.4-12.6-12.6-29.5-6.7-50.7
	c3.7-13.3,8.9-25.9,15.8-37.7c6.8-11.8,12.9-19,18.3-21.6c12-4.8,20.6-2.5,25.9,6.8s2.6,17.4-7.9,24.3c-9.5,6.1-16,17-19.6,32.7
	s-1.7,24.9,5.7,27.8c12.9,4.3,37-9.6,72.5-41.9c15.3-13.4,27-23.6,35.2-30.4s16.1-13,23.6-18.5s13.4-8.6,17.7-9.3
	c4.2-0.7,8.1-0.7,11.7-0.1s7.6,2.6,12.2,5.9c5.2,3.2,8.5,7.1,10.1,11.5s3,14.3,4.3,29.8l3.5,33.4c18.6-18,39.6-37.6,62.9-58.7
	c32.4-29.5,53.6-47.3,63.3-53.5C1507,372.5,1515,372.7,1521.2,379.2z M1223.3,739.5c7.5-11.1,17-26.6,28.3-46.7
	c11.3-20.1,21.1-38,29.3-53.8c8.2-15.8,12-23.9,11.4-24.4c-0.1-0.6-14.3,12.4-42.6,38.9c-35,35.1-64,69.4-86.8,102.9
	s-33.2,57-31,70.6c0.8,5.1,2,7.7,3.4,7.7c1.5,0,5.8-2.5,13.1-7.7c9.8-7.9,22-20.4,36.7-37.6C1199.8,772.4,1212.6,755.7,1223.3,739.5
	z"/>
</svg>
