<?xml version="1.0" encoding="utf-8"?>
<!-- Generator: Adobe Illustrator 28.0.0, SVG Export Plug-In . SVG Version: 6.00 Build 0)  -->
<svg version="1.1" id="Layer_1" xmlns="http://www.w3.org/2000/svg" xmlns:xlink="http://www.w3.org/1999/xlink" x="0px" y="0px"
	 viewBox="0 0 2998 1164.2" style="enable-background:new 0 0 2998 1164.2;" xml:space="preserve">
<style type="text/css">
	.st0{fill:#FFFFFF;}
</style>
<g>
	<g>
		<path class="st0" d="M1579.6,817.9c-8.1,5.1-17.3,9-27.6,11.8c-10.3,2.8-21.3,4.2-32.9,4.2c-13.9,0-26.8-2-38.8-6.1
			c-11.9-4.1-22.4-9.7-31.3-16.9c-8.9-7.2-15.9-15.6-21-25.2c-5.1-9.6-7.6-20-7.6-31.1c0-13.9,3.9-26.7,11.8-38.2
			c7.9-11.6,18.4-20.9,31.6-27.8c-4.4-6-7.8-12.6-10.3-19.6c-2.4-7.1-3.7-14.7-3.7-22.8c0-10,1.9-19.4,5.7-28.3
			c3.8-8.9,9-16.6,15.5-23.1c6.5-6.5,14.1-11.6,22.9-15.5c8.8-3.8,18.3-5.7,28.5-5.7c10,0,19.4,1.9,28.3,5.7
			c8.9,3.8,16.7,9,23.3,15.5c6.6,6.5,11.8,14.2,15.6,23.1c3.8,8.9,5.7,18.4,5.7,28.3c0,13.2-3.1,25.2-9.4,35.8
			c-6.3,10.7-14.6,19.1-25,25.4l21.2,25.4l33.4-29.2l40.3,45.5L1622,779l45.2,55.3l-73-0.3L1579.6,817.9z M1484,761.2
			c2.5,5.1,6.3,8.9,11.1,11.3c4.9,2.4,12.5,3.4,22.9,3c3.7-0.2,7.3-0.8,10.8-1.7c3.5-0.9,6.5-1.9,9-2.8l-32.3-36.5
			c-1.4,0.9-2.6,1.7-3.5,2.3c-0.9,0.6-2.6,1.5-4.9,2.6c-5.8,3.9-9.9,7.8-12.3,11.5C1482.4,754.5,1482.1,758,1484,761.2z
			 M1522.6,633.6c-3.5,0-6.4,1.2-8.9,3.7c-2.4,2.4-3.7,5.4-3.7,8.9c0,3.2,1.2,6.1,3.7,8.5c2.4,2.4,5.4,3.6,8.9,3.6
			c3.5,0,6.4-1.2,8.9-3.6c2.4-2.4,3.7-5.3,3.7-8.5c0-3.5-1.2-6.4-3.7-8.9C1529,634.8,1526.1,633.6,1522.6,633.6z"/>
		<path class="st0" d="M2001.4,573.5v260.8H1943v-99.8h-97.4v99.8h-58.4V573.5h58.4v102.9h97.4V573.5H2001.4z"/>
		<path class="st0" d="M2100.8,834.6h-62.6l102.9-261.8h37.9l95.3,261.8h-62.2l-15.6-44.2h-78.9L2100.8,834.6z M2158.9,686.5
			l-18.4,46.2h35.1L2158.9,686.5z"/>
		<path class="st0" d="M2465.5,631.9h-64.7v202.4h-58.1V631.9h-64.7v-58.1h187.4V631.9z"/>
		<path class="st0" d="M2613.7,834.9c-18.1,0-35.1-3.4-50.9-10.3c-15.9-6.8-29.7-16.2-41.6-28c-11.8-11.8-21.2-25.7-28-41.6
			c-6.8-15.9-10.3-32.7-10.3-50.6c0-18.1,3.4-35.1,10.3-50.9c6.8-15.9,16.2-29.7,28-41.6c11.8-11.8,25.7-21.2,41.6-28
			c15.9-6.8,32.9-10.3,50.9-10.3c18.3,0,35.9,3.7,52.7,11.1c16.8,7.4,31.5,18.1,44,32l-42.1,37.9c-7.2-7.9-15.5-13.9-24.9-18.1
			c-9.4-4.2-19.3-6.3-29.7-6.3c-10.2,0-19.8,1.9-28.9,5.7c-9,3.8-16.9,9.1-23.6,15.8c-6.7,6.7-12,14.6-15.8,23.6
			c-3.8,9-5.7,18.7-5.7,28.9c0,10.2,1.9,19.8,5.7,28.7c3.8,8.9,9.1,16.7,15.8,23.5c6.7,6.7,14.6,12,23.6,15.8
			c9,3.8,18.7,5.7,28.9,5.7c10.4,0,20.3-2.1,29.7-6.3c9.4-4.2,17.7-10.2,24.9-18.1l42.1,38.2c-12.5,13.9-27.2,24.5-44,31.8
			C2649.5,831.3,2632,834.9,2613.7,834.9z"/>
		<path class="st0" d="M2981.5,573.5v260.8h-58.4v-99.8h-97.4v99.8h-58.4V573.5h58.4v102.9h97.4V573.5H2981.5z"/>
	</g>
	<g>
		<path class="st0" d="M1015.7,79.5c2.3,1.2,4.5,2.4,6.5,4c2.4,1.8,3.5,3.9,3.4,6.9c-0.2,4.5-0.9,8.9-1.8,13.3
			c-2.6,13-5.8,25.9-9.4,38.7c-5.9,21.3-11.9,42.5-18,63.7c-7.6,26.6-15.3,53.2-23,79.8c-8.6,29.8-17.3,59.6-26,89.4
			c-6,20.7-12,41.5-18.1,62.2c-7.3,25.2-14.7,50.3-22.1,75.5c-5.1,17.5-10.1,35-15.2,52.5c-2,6.9-4,13.8-6,20.7
			c-0.2,0.7-0.4,1.5-0.6,2.2c1,0.7,1.3,0,1.6-0.5c2.5-3.7,5.1-7.4,7.4-11.2c6.7-11.1,14.9-21.2,23.2-31.1c7.7-9.2,16.2-17.7,25-25.9
			c7.8-7.2,15.9-13.9,24.9-19.5c4.8-3,9.7-5.5,15.3-6.6c7.2-1.4,13.2,1.1,18.4,5.9c2.7,2.5,3.6,6,3.9,9.6c0.2,2.9-0.4,5.7-1.2,8.5
			c-2,7-5.5,13.3-9.7,19.2c-6,8.3-12.9,15.8-20.2,23c-7.7,7.6-15.1,15.6-22.5,23.6c-2.9,3.2-5.6,6.6-8.3,9.9c-2.1,2.6-4,5.4-5.3,8.5
			c-1,2.4-0.2,3.6,2.5,3.7c2.4,0.1,4.8-0.1,7.1-0.7c11-2.9,21.7-6.7,31.5-12.7c12.3-7.5,24.6-14.9,36.3-23.3
			c16.3-11.7,31.4-24.8,45-39.5c3.5-3.8,7-7.5,10.4-11.3c1.3-1.4,2.4-3,3.5-4.5c2.2-2.9,4.3-6,6.6-8.8c5.6-6.8,13.1-9.4,21.8-8.8
			c3.1,0.2,5.9,1.5,8.2,3.6c4,3.5,6.4,7.9,7.3,13.2c0.5,3-0.3,5.7-1.6,8.3c-1.3,2.6-3.1,4.8-5.5,6.6c-1.5,1.2-3.1,2.3-4.6,3.4
			c-4.2,3.2-8,7-10.6,11.6c-6,10.6-9.3,22-9.2,34.3c0,1.7,0.2,3.5,0.6,5.2c1.1,4.5,4.7,7.8,9.6,7.9c3.5,0.1,7-0.2,10.4-1.3
			c5.6-2,10.9-4.6,15.9-7.8c10.6-6.6,20.5-14.2,29.9-22.4c16.7-14.5,33.1-29.2,50.1-43.3c7.5-6.2,15.2-12.2,23.1-17.9
			c1.8-1.3,3.8-2.4,5.7-3.6c6.3-4.2,13.3-5.2,20.7-4.5c3.1,0.3,6,1.3,8.6,2.9c3,1.8,6,3.7,8.8,5.8c4.2,3.2,6.8,7.6,7.8,12.8
			c1.4,6.8,2.1,13.6,2.8,20.4c0.5,4.6,0.8,9.2,1.3,13.8c0.6,5.7,1.2,11.4,1.8,17.2c0.2,1.4,0.4,2.9,0.7,4.3c0.3,1.3,1,1.6,2,0.8
			c0.4-0.3,0.7-0.6,1.1-1c5.1-4.8,10.2-9.7,15.3-14.5c12.5-12,25.2-23.6,38-35.2c8-7.2,15.8-14.5,23.8-21.6
			c13.2-11.6,26.3-23.4,40.4-33.9c3.2-2.4,6.6-4.5,10.3-6.1c2.7-1.2,5.5-1.8,8.4-1.6c5.3,0.3,9.4,2.8,12.3,7.3c0,3.5,0,7,0,10.6
			c-1.7,3.7-4.4,6.7-7.2,9.5c-10.4,10.6-20.8,21.3-31.8,31.3c-1.8,1.6-3.5,3.3-5.2,5c-17.2,16.5-34.5,32.9-51.7,49.4
			c-5.7,5.4-11.3,10.8-17,16.2c-11.4,10.8-22.8,21.5-34.5,32c-5,4.5-9.9,9.1-14.9,13.6c-3.4,3-5.9,6.7-8,10.7
			c-4,7.9-7.5,15.9-10.9,24c-6.9,16.2-13.4,32.5-20.8,48.5c-7.3,15.7-14.8,31.2-22.9,46.5c-9.1,17.3-18.8,34.2-29,50.9
			c-16.1,26.2-33.3,51.6-52.7,75.5c-6,7.3-12.2,14.4-18.6,21.3c-8.7,9.4-18.2,18-28.1,26c-10.5,8.5-22.7,13-35.9,14.9
			c-4.1,0.6-8.2,0.8-12.4,0.2c-6.8-1-11.9-4.3-15.9-9.7c-2.5-3.4-4.3-7.1-5.8-11c-2.4-6.3-3.6-13-3.7-19.7
			c-0.1-5.6,0.9-11.1,2.1-16.6c2.7-12.2,6.9-24,12.3-35.3c8-16.8,17.9-32.5,28.5-47.7c10.1-14.5,21.2-28.1,32.8-41.3
			c3.8-4.3,7.7-8.5,11.7-12.7c18-18.9,36.1-37.7,54.8-55.8c13.3-12.9,26.8-25.7,40.3-38.4c10.1-9.5,20.4-18.9,30.7-28.3
			c5.2-4.8,9.9-10,14.5-15.3c2.7-3.1,4-6.8,5-10.8c1.6-6.9,2.8-13.8,3.7-20.8c1.8-13.8,2.7-27.7,2.2-41.6c-0.1-3.2-0.5-6.4-1.3-9.5
			c-1.2-4.9-2.4-5.4-6.2-2.2c-9.3,7.6-18.4,15.3-27.7,23c-15.5,12.9-30.2,26.7-45.9,39.3c-8,6.4-16,12.8-24.8,18.1
			c-10.8,6.5-22.3,11.1-34.8,13.1c-7.5,1.2-15,1.6-22.4-0.1c-16.8-3.9-27.4-14.5-32-31c-0.5-1.8-0.8-3.8-1.2-5.6
			c-0.3-1.3-1.5-1.6-2.6-0.9c-0.5,0.3-1,0.8-1.5,1.2c-18.8,15.1-39.2,27.6-60.9,38.1c-8.8,4.3-17.7,8.2-27.1,11
			c-6.9,2.1-14,3.4-21.2,3.8c-5.5,0.3-10.8-1-15.9-3.1c-4.8-2-8.9-5.1-12.9-8.3c-1.9-1.5-3.7-3-5.7-4.4c-1.4-1-2.1-0.8-3.2,0.6
			c-0.6,0.8-1.1,1.6-1.6,2.4c-10.2,16.8-20.5,33.6-30.7,50.4c-7.3,12-14.8,24-22.6,35.7c-3.3,4.9-6.8,9.7-11.2,13.7
			c-1.3,1.2-2.6,2.4-4.1,3.3c-4.2,2.5-8.1,1.5-10.7-2.6c-1.9-3-2.7-6.5-2.9-10c-0.3-5.8,0.3-11.5,1.6-17.1
			c2.1-8.9,4.3-17.7,6.6-26.5c7.3-27,15-53.9,22.9-80.8c0.4-1.4,0.7-2.7,1.1-4.4c-1.7-0.1-2.5,1-3.4,1.7
			c-11.3,8.9-22.6,17.8-34,26.7c-13,10.2-25.8,20.5-38.4,31.1c-9.5,8-19,16.2-28.5,24.3c-2.7,2.3-5.3,4.7-8,6.9
			c-1.8,1.5-2.3,3.2-2,5.5c1,6.1,1.8,12.3,3,18.5c1.7,9.3,2.2,18.8,1.4,28.2c-1,13.1-5.4,24.9-14.9,34.5
			c-8.3,8.2-18.3,11.4-29.8,10.4c-9-0.8-17.5-3.6-25.4-8c-6.5-3.6-12.1-8.3-15.6-15.1c-5.4-10.3-4.9-20.6-0.5-31
			c2.7-6.4,6.6-12.1,10.6-17.7c6.7-9.4,14.5-17.9,22.9-25.8c1.4-1.3,2.7-2.8,4.2-4c2.1-1.7,2.5-3.9,2.1-6.5
			c-0.7-4.1-1.3-8.2-1.9-12.3c-2.3-14.7-4.7-29.4-7-44.1c-0.8-5.1-0.9-10.2,0.3-15.3c0.9-3.9,1.7-7.8,2.5-11.7
			c0.9-4.5,3.3-8.3,6.1-11.8c5.1-6.5,11.3-11.7,18.9-15.3c9-4.2,18.2-4.7,27.5-1.5c1.5,0.5,3,1.2,4.4,2c10.7,5.6,9.6,21.4-0.4,26.3
			c-2.6,1.3-5.3,2.3-8.1,2.9c-1.9,0.4-3.8,0.7-5.6,1.2c-5.3,1.6-8.8,5-9.7,10.7c-0.4,2.4-0.4,4.8-0.1,7.2
			c1.2,11.3,4.2,22.3,7.1,33.3c0.1,0.3,0.2,0.6,0.3,0.9c0.4,0.9,1.1,1.2,1.9,0.5c2.8-2.2,5.5-4.4,8.2-6.6
			c18-14.9,36.2-29.5,54.8-43.7c14.4-11,28.9-21.7,44.1-31.6c7.2-4.7,14.5-9.4,22.4-13.1c2.9-1.3,4.4-3.3,5.3-6.3
			c3.8-13.2,7.7-26.4,11.5-39.6c7.8-26.9,15.7-53.8,23.4-80.7c11.2-39,22.3-78.1,33.6-117.2c9-31.2,18-62.4,27.1-93.6
			c6.6-22.7,13.4-45.4,20.3-68.1c4.7-15.3,9.3-30.6,15-45.6c1.7-4.6,4.1-8.6,7.8-11.9c1.8-1.6,3.9-2.8,5.9-4.1
			C1010.5,79.5,1013.1,79.5,1015.7,79.5z M1203.7,697.5c-2.5,0.8-3.6,2-4.8,3.1c-9,8.4-18.2,16.6-27.1,25.1
			c-11.1,10.6-21.9,21.5-32.3,32.8c-10.2,11.1-20.1,22.3-29.7,33.9c-14,16.9-27,34.5-39,52.8c-6.7,10.3-12.9,21-18.2,32.1
			c-2.8,6-5.1,12.1-6.4,18.5c-0.9,4.1-1,8.3-0.2,12.4c1,5.5,2.6,6.2,7.4,3.2c5.5-3.3,10.5-7.2,15.2-11.7
			c12.3-11.9,23.8-24.5,34.8-37.7c17.2-20.5,32.6-42.2,46.4-65.2c8.6-14.3,16.7-28.8,24.7-43.3c9.4-16.9,18.5-34,27-51.4
			C1202.1,701,1202.7,699.7,1203.7,697.5z M706.5,726.3c0.1-4.7-1-8.9-1.5-13.1c0-0.3-0.2-0.6-0.3-0.9c-0.3-0.6-0.8-1-1.6-0.6
			c-0.4,0.2-0.8,0.5-1.2,0.8c-6.9,5.9-11.6,13.4-16.4,21c-0.2,0.3-0.3,0.6-0.4,0.9c-0.7,1.7-0.4,3.1,0.9,4.4c2,1.9,4.3,3.2,7.1,3.8
			c4.8,1,8-0.5,10.5-4.7C705.7,734.2,706.7,730.2,706.5,726.3z"/>
		<path class="st0" d="M13.4,875.4c0.9-1,1.4-2.1,1.6-3.4c3.1-15.3,8.8-29.7,14.9-44c3.7-8.9,8.2-17.3,12.8-25.8
			c7-12.8,7-12.9,5.8-28.9c-0.6-7.5-2-14.9-3.1-22.3c-1.7-10.7-3.1-21.5-4.1-32.4c-0.5-5.7-0.9-11.5-0.8-17.2
			c0.1-11.4,2.8-22.2,8.8-32c3.9-6.4,9.2-11.5,15.5-15.5c3.5-2.2,7.4-3.7,11.5-4.5c5.8-1.1,11.1,0.2,16.1,3.1
			c4.1,2.4,7.5,5.6,10.2,9.3c3.7,5,4.9,10.7,3.4,16.8c-0.9,3.4-2.1,6.7-4.3,9.6c-3.1,4.2-7.7,5.8-12.7,4.4c-0.9-0.2-1.8-0.6-2.7-0.9
			c-1.2-0.4-2.4-0.8-3.7-1.1c-5.3-1.1-8.8,1.4-9.5,6.7c-0.2,1.7-0.2,3.5-0.2,5.3c-0.1,5.8,0.8,11.5,1.4,17.2
			c0.8,7.6,1.5,15.3,1.7,23c0,2.2,0,4.5,0.8,6.6c0.3,0.9,1.2,1.2,1.9,0.4c2.5-2.9,5.1-5.8,7.4-8.8c10.5-13.5,20.9-27.1,31.5-40.5
			c22.2-28.3,43.1-57.7,63.6-87.2c7.2-10.4,14-21,21.2-31.5c27.9-40.7,53.9-82.5,79-124.9c4.8-8.1,9.6-16.3,13.7-24.8
			c0.7-1.4,1.3-2.9,1.9-4.4c0.4-1-0.5-2-1.5-1.9c-3.3,0.3-6.7,0.5-10,1c-13.9,2.2-27.6,5.2-41.4,8.2c-24.8,5.4-49.7,10.7-74.5,16.5
			c-25.2,5.9-50.5,11.5-75.9,16.4c-4.5,0.9-9.1,1.6-13.7,2.1c-5.5,0.6-10.4-1-14.2-5.4c-6.3-7.3-4.3-19,4.3-23.4
			c2.4-1.2,5-2.1,7.6-3c10.2-3.3,20.6-5.9,31-8.5c31.3-7.9,62.9-14.6,94.5-21.2c17.8-3.7,35.7-7.6,53.5-11.3
			c16.3-3.4,32.6-6.6,48.9-9.9c7.3-1.5,6-0.9,8.6-6.8c7.6-17.6,14.5-35.5,21.7-53.3c8-19.7,15.9-39.5,23.9-59.2
			c2.2-5.3,4.6-10.6,7-15.8c6.1-12.9,12.4-25.7,19.1-38.2c7.9-14.8,16.7-29.1,26.4-42.9c2.2-3.1,4.7-6.1,7.1-9.1
			c2.4-3,5.4-5.5,8.6-7.6c5.6-3.7,11.3-4.1,17.2-0.8c3.2,1.8,6.1,4.1,8.9,6.5c2.3,2,3.3,4.6,3.3,7.7c0,3.1-0.6,6-1.2,9
			c-2.6,14.6-7.4,28.5-12.9,42.1c-6.2,15.1-13.1,29.9-20.3,44.5c-6.4,13.1-12.7,26.2-19.3,39.2c-6.8,13.2-14,26.3-20.8,39.5
			c-4.7,9.1-9.9,17.9-14,27.3c-0.4,0.9-0.8,1.7-1.1,2.7c-0.5,1.5,0.1,2.5,1.8,2.6c1.1,0.1,2.2,0.1,3.4,0c6.7-0.7,13.4-1.3,20-2.1
			c10.3-1.3,20.6-2.8,30.9-4.4c11.7-1.7,23.4-3.6,35.1-5.3c9.8-1.5,19.6-2.9,29.4-4.3c10.6-1.5,21.2-3.1,31.8-4.4
			c9.3-1.2,18.7-2.1,28.1-3.4c6.1-0.8,12.1-1,18.2-0.9c2.6,0,5.1,0.5,7.5,1.5c3,1.2,4.9,3.4,5.9,6.5c0.8,2.5,0.9,5.1,0.2,7.6
			c-1.2,4.4-4,7.1-8.6,8c-9.1,1.8-18.2,3.8-27.2,5.6c-24.4,5-48.9,10-73.3,14.8c-16.8,3.3-33.6,6.3-50.5,9.4
			c-12.7,2.3-25.5,4.7-38.2,7c-10.1,1.8-20.2,3.6-30.2,5.5c-6.9,1.4-5.8,0.2-9.1,6.9c-3.9,7.9-7.2,16.1-10,24.4
			c-11.3,33.1-22,66.5-32.5,99.9c-6.8,22-13.7,44-20.3,66c-6.8,22.7-13.5,45.4-20.1,68.1c-5.9,20.4-11.8,40.9-17.6,61.3
			c-7.1,25.3-14.2,50.5-20.9,75.8c-4.7,17.6-8.1,35.5-11.6,53.4c-3.6,18.5-6.6,37.1-9.3,55.8c-1.6,10.9-2.9,21.9-4.3,32.8
			c-1.5,11.1-3,22.2-4.4,33.3c-1.1,9-2.1,18.1-3.2,27.1c-0.7,5.7-1.4,11.4-3.1,17c-1.4,4.7-3.7,8.5-8.6,10.2c-3.8,0-7.7,0-11.5,0
			c-3.2-4.1-5-8.9-6-14c-0.6-3-0.8-6-1.1-9c-1.1-9.1-0.7-18.2-0.3-27.3c0.2-6.2,0.9-12.4,1.5-18.6c0.7-7.8,1.3-15.6,2.4-23.4
			c2-14.7,4.1-29.5,6.3-44.2c2-12.5,4.1-24.9,6.5-37.3c4.5-23.2,10.1-46.2,15.8-69.2c7.5-30.4,15.4-60.8,23.6-91
			c10.8-40.2,22.2-80.2,34.8-119.8c2.1-6.7,4-13.5,5.9-20.3c0.3-1.2,0.4-2.5,0.6-3.8c0-0.2-0.2-0.6-0.5-0.7
			c-0.2-0.1-0.7-0.1-0.9,0.1c-1.2,1.3-2.4,2.6-3.5,3.9c-8.9,11.7-17.1,24-25.3,36.2c-6.6,9.8-13.2,19.6-20.1,29.3
			c-15.9,22.5-32.5,44.4-48.9,66.5c-20.8,28-41.7,55.9-62.6,83.8c-2.3,3-3.1,5.9-2.4,9.8c2.2,12.9,4.5,25.8,5.6,38.9
			c1,11.1,0.2,22.1-2.6,32.8c-4.7,18.2-15.9,30.7-33.1,38c-6.4,2.7-13.1,4-20.2,2.4c-12.7-3-21.6-10.1-25.3-22.9
			c-0.5-1.5-0.8-3.1-1.9-4.3C13.4,881.1,13.4,878.3,13.4,875.4z M61.3,849.2c-0.1-1.5,0-2.8-0.3-4.1c-0.2-0.9-0.6-1.8-1-2.7
			c-0.3-0.7-1.5-0.9-2.1-0.3c-0.5,0.6-1,1.2-1.5,1.9c-4.6,7.1-7.2,14.9-9.1,23.1c-0.3,1.4-0.3,2.9-0.2,4.3c0.2,2.4,2.1,3.2,4.1,1.8
			c1.6-1.1,2.9-2.6,3.8-4.2C58.7,862.8,60.7,856.1,61.3,849.2z"/>
		<path class="st0" d="M556.4,682.6c1.3,0,1.5-1.1,1.9-1.9c12.7-20.4,27-39.7,42.4-58.1c6.7-8,13.9-15.5,21.5-22.6
			c4.7-4.4,9.8-8.2,15.3-11.6c3.4-2.1,7.2-3.5,11.1-4.4c3.3-0.8,6.4-0.5,9.5,0.5c8.6,2.8,9.7,10.7,7.5,16.6
			c-0.9,2.6-2.9,4.1-5.4,5.1c-2.1,0.8-4.3,1.4-6.5,1.6c-3.8,0.5-6.9,2.2-9.6,4.9c-8.6,8.4-16.7,17.2-24.4,26.5
			c-11.8,14.2-23.1,28.7-33,44.2c-7.6,11.9-14.4,24.2-19.3,37.5c-3.4,9-5.5,18.4-6.7,27.9c-0.9,7.3-1.2,14.7-2.7,21.9
			c-0.5,2.2-0.9,4.4-1.6,6.5c-0.5,1.7-1.1,3.3-1.9,4.9c-3,5.9-8,8.3-14.4,6.7c-7-1.8-12.5-5.5-15.3-12.6c-1.3-3.5-2.2-7-2.7-10.7
			c-0.6-4.4-1.1-8.9-1.1-13.4c0-0.9,0.1-1.9-0.5-2.8c-1.4,0-1.2,1.3-1.4,2c-1.7,5.2-3.3,10.4-4.8,15.6c-2.6,9.2-8,16.7-14.3,23.6
			c-3.3,3.7-7,7-11,10c-7.1,5.3-15,8.4-23.7,9.7c-0.6,0.1-1.3,0.1-1.9,0.2c-8.9,2-16.8-0.8-24.3-5.1c-6.3-3.6-11.4-8.7-15.9-14.4
			c-7-8.9-12-18.9-16.3-29.3c-6.6-16-11.3-32.6-15.4-49.4c-2.6-10.4-5.1-20.8-7.7-31.2c-0.3-1.2-0.4-2.5-1.4-3.8
			c-1.5,1.2-1.9,2.9-2.5,4.4c-4,9.6-8,19.2-11.9,28.8c-5.4,13.5-10.5,27.2-16.4,40.5c-3.1,7-6.2,14.1-10.1,20.7
			c-2.4,4.2-5.2,8-8.4,11.6c-6.3,7-21.8,8.1-28.5-3.7c-2.5-4.5-4.2-9.3-5.3-14.4c-1.9-8.6-2.8-17.4-2.9-26.2
			c-0.4-31.3,4.7-61.8,14.5-91.5c4.9-14.7,12-28.3,22.2-40c5.6-6.5,12-12,19.8-15.6c4.1-1.9,8.4-2.9,13-2.7c5.4,0.2,10,2.1,13.8,5.9
			c2.4,2.4,4.5,5.1,5.9,8.1c2.7,6.1,2.2,12.2-0.8,18.1c-1.9,3.7-5.3,4-8.3,1c-1-1-1.8-2.2-2.7-3.4c-0.8-1-1.4-2.1-2.2-3.1
			c-2.9-3.6-6.7-4.3-10.6-1.8c-1.6,1-3.1,2.3-4.5,3.6c-5.1,5.1-9.1,11.1-12.5,17.5c-7.1,13.2-11.5,27.4-14.4,42.1
			c-2.6,12.9-4.1,25.9-5.2,39c-0.7,9.1-0.7,18.2-0.9,27.3c0,1.4,0.1,2.9,0.2,4.3c0,0.2,0.4,0.5,0.6,0.6c0.2,0,0.7-0.2,0.8-0.4
			c0.6-1.1,1.2-2.3,1.6-3.5c3.3-8.2,6.5-16.4,9.7-24.5c7.2-18.1,14.5-36.2,23.3-53.7c3-5.9,6.1-11.6,9.9-17c2.1-3.1,4.6-5.8,7.3-8.2
			c2.3-2.1,4.9-3.6,7.9-4.3c5.8-1.3,10.8,0.1,14.8,4.5c2.3,2.5,3.9,5.4,5.4,8.5c3.3,7,5.7,14.2,7.8,21.6c3.6,12.8,7,25.6,10.6,38.4
			c2.9,10.3,6.2,20.5,10.2,30.5c4.3,10.6,10.6,20,17.6,29.1c1,1.3,2.1,2.4,3.4,3.4c3.5,3,7.3,3.6,11.5,1.3c4-2.2,7.4-5,10.4-8.4
			c6.8-7.5,12.9-15.5,18.7-23.7c7.4-10.4,14.6-21,22-31.5c1.9-2.7,2.9-5.5,2.8-8.9c-0.2-6.9,0-13.8,0-20.6c0.1-14.1,1-28.1,3-42.1
			c0.9-6.2,2.3-12.3,4.8-18c1-2.4,2.4-4.6,4.1-6.5c2.7-3,5.9-4.8,10-4.8c1.4,0,2.9,0,4.3,0c5.5,0.3,8.9,3,10.2,8.4
			c1,4.2,1.6,8.5,1.1,12.9c-0.7,6.4-0.5,12.8-1,19.2c-0.7,9.8-0.4,19.5-0.6,29.3C556.1,680.1,555.7,681.4,556.4,682.6z"/>
	</g>
</g>
</svg>
